<?xml version="1.0" encoding="utf-8"?>
<svg xmlns="http://www.w3.org/2000/svg" xmlns:xlink="http://www.w3.org/1999/xlink" width="600" height="400" viewBox="0 0 2400 1600">
<defs>
  <clipPath id="clip360">
    <rect x="0" y="0" width="2400" height="1600"/>
  </clipPath>
</defs>
<path clip-path="url(#clip360)" d="M0 1600 L2400 1600 L2400 0 L0 0  Z" fill="#ffffff" fill-rule="evenodd" fill-opacity="1"/>
<defs>
  <clipPath id="clip361">
    <rect x="249" y="123" width="2104" height="1288"/>
  </clipPath>
</defs>
<path clip-path="url(#clip360)" d="M249.542 1410.9 L2352.76 1410.9 L2352.76 123.472 L249.542 123.472  Z" fill="#ffffff" fill-rule="evenodd" fill-opacity="1"/>
<polyline clip-path="url(#clip361)" style="stroke:#000000; stroke-linecap:round; stroke-linejoin:round; stroke-width:2; stroke-opacity:0.1; fill:none" points="805.108,1410.9 805.108,123.472 "/>
<polyline clip-path="url(#clip361)" style="stroke:#000000; stroke-linecap:round; stroke-linejoin:round; stroke-width:2; stroke-opacity:0.1; fill:none" points="1797.19,1410.9 1797.19,123.472 "/>
<polyline clip-path="url(#clip361)" style="stroke:#000000; stroke-linecap:round; stroke-linejoin:round; stroke-width:2; stroke-opacity:0.1; fill:none" points="249.542,1410.9 2352.76,1410.9 "/>
<polyline clip-path="url(#clip361)" style="stroke:#000000; stroke-linecap:round; stroke-linejoin:round; stroke-width:2; stroke-opacity:0.1; fill:none" points="249.542,1104.37 2352.76,1104.37 "/>
<polyline clip-path="url(#clip361)" style="stroke:#000000; stroke-linecap:round; stroke-linejoin:round; stroke-width:2; stroke-opacity:0.1; fill:none" points="249.542,797.837 2352.76,797.837 "/>
<polyline clip-path="url(#clip361)" style="stroke:#000000; stroke-linecap:round; stroke-linejoin:round; stroke-width:2; stroke-opacity:0.1; fill:none" points="249.542,491.308 2352.76,491.308 "/>
<polyline clip-path="url(#clip361)" style="stroke:#000000; stroke-linecap:round; stroke-linejoin:round; stroke-width:2; stroke-opacity:0.1; fill:none" points="249.542,184.778 2352.76,184.778 "/>
<polyline clip-path="url(#clip360)" style="stroke:#000000; stroke-linecap:round; stroke-linejoin:round; stroke-width:4; stroke-opacity:1; fill:none" points="249.542,1410.9 2352.76,1410.9 "/>
<polyline clip-path="url(#clip360)" style="stroke:#000000; stroke-linecap:round; stroke-linejoin:round; stroke-width:4; stroke-opacity:1; fill:none" points="805.108,1410.9 805.108,1392 "/>
<polyline clip-path="url(#clip360)" style="stroke:#000000; stroke-linecap:round; stroke-linejoin:round; stroke-width:4; stroke-opacity:1; fill:none" points="1797.19,1410.9 1797.19,1392 "/>
<path clip-path="url(#clip360)" d="M754.527 1485.02 L762.166 1485.02 L762.166 1458.66 L753.856 1460.32 L753.856 1456.06 L762.12 1454.4 L766.796 1454.4 L766.796 1485.02 L774.435 1485.02 L774.435 1488.96 L754.527 1488.96 L754.527 1485.02 Z" fill="#000000" fill-rule="nonzero" fill-opacity="1" /><path clip-path="url(#clip360)" d="M793.879 1457.48 Q790.268 1457.48 788.439 1461.04 Q786.634 1464.58 786.634 1471.71 Q786.634 1478.82 788.439 1482.38 Q790.268 1485.92 793.879 1485.92 Q797.513 1485.92 799.319 1482.38 Q801.147 1478.82 801.147 1471.71 Q801.147 1464.58 799.319 1461.04 Q797.513 1457.48 793.879 1457.48 M793.879 1453.77 Q799.689 1453.77 802.745 1458.38 Q805.823 1462.96 805.823 1471.71 Q805.823 1480.44 802.745 1485.04 Q799.689 1489.63 793.879 1489.63 Q788.069 1489.63 784.99 1485.04 Q781.935 1480.44 781.935 1471.71 Q781.935 1462.96 784.99 1458.38 Q788.069 1453.77 793.879 1453.77 Z" fill="#000000" fill-rule="nonzero" fill-opacity="1" /><path clip-path="url(#clip360)" d="M805.823 1447.87 L829.935 1447.87 L829.935 1451.07 L805.823 1451.07 L805.823 1447.87 Z" fill="#000000" fill-rule="nonzero" fill-opacity="1" /><path clip-path="url(#clip360)" d="M848.573 1436.78 L838.981 1451.77 L848.573 1451.77 L848.573 1436.78 M847.577 1433.47 L852.354 1433.47 L852.354 1451.77 L856.36 1451.77 L856.36 1454.93 L852.354 1454.93 L852.354 1461.55 L848.573 1461.55 L848.573 1454.93 L835.897 1454.93 L835.897 1451.26 L847.577 1433.47 Z" fill="#000000" fill-rule="nonzero" fill-opacity="1" /><path clip-path="url(#clip360)" d="M1747.46 1485.02 L1755.09 1485.02 L1755.09 1458.66 L1746.78 1460.32 L1746.78 1456.06 L1755.05 1454.4 L1759.72 1454.4 L1759.72 1485.02 L1767.36 1485.02 L1767.36 1488.96 L1747.46 1488.96 L1747.46 1485.02 Z" fill="#000000" fill-rule="nonzero" fill-opacity="1" /><path clip-path="url(#clip360)" d="M1786.81 1457.48 Q1783.2 1457.48 1781.37 1461.04 Q1779.56 1464.58 1779.56 1471.71 Q1779.56 1478.82 1781.37 1482.38 Q1783.2 1485.92 1786.81 1485.92 Q1790.44 1485.92 1792.25 1482.38 Q1794.08 1478.82 1794.08 1471.71 Q1794.08 1464.58 1792.25 1461.04 Q1790.44 1457.48 1786.81 1457.48 M1786.81 1453.77 Q1792.62 1453.77 1795.67 1458.38 Q1798.75 1462.96 1798.75 1471.71 Q1798.75 1480.44 1795.67 1485.04 Q1792.62 1489.63 1786.81 1489.63 Q1781 1489.63 1777.92 1485.04 Q1774.86 1480.44 1774.86 1471.71 Q1774.86 1462.96 1777.92 1458.38 Q1781 1453.77 1786.81 1453.77 Z" fill="#000000" fill-rule="nonzero" fill-opacity="1" /><path clip-path="url(#clip360)" d="M1798.75 1447.87 L1822.86 1447.87 L1822.86 1451.07 L1798.75 1451.07 L1798.75 1447.87 Z" fill="#000000" fill-rule="nonzero" fill-opacity="1" /><path clip-path="url(#clip360)" d="M1834.34 1458.35 L1847.6 1458.35 L1847.6 1461.55 L1829.77 1461.55 L1829.77 1458.35 Q1831.93 1456.11 1835.65 1452.35 Q1839.4 1448.57 1840.35 1447.48 Q1842.18 1445.43 1842.89 1444.02 Q1843.63 1442.59 1843.63 1441.22 Q1843.63 1438.98 1842.05 1437.57 Q1840.49 1436.16 1837.97 1436.16 Q1836.18 1436.16 1834.19 1436.78 Q1832.21 1437.4 1829.95 1438.66 L1829.95 1434.82 Q1832.25 1433.9 1834.24 1433.43 Q1836.24 1432.96 1837.89 1432.96 Q1842.25 1432.96 1844.85 1435.14 Q1847.45 1437.32 1847.45 1440.97 Q1847.45 1442.7 1846.79 1444.26 Q1846.15 1445.8 1844.44 1447.91 Q1843.97 1448.46 1841.45 1451.07 Q1838.93 1453.67 1834.34 1458.35 Z" fill="#000000" fill-rule="nonzero" fill-opacity="1" /><path clip-path="url(#clip360)" d="M1151.19 1551.91 Q1153.26 1552.61 1155.2 1554.9 Q1157.17 1557.19 1159.15 1561.2 L1165.67 1574.19 L1158.76 1574.19 L1152.68 1562 Q1150.33 1557.22 1148.1 1555.66 Q1145.91 1554.1 1142.09 1554.1 L1135.08 1554.1 L1135.08 1574.19 L1128.65 1574.19 L1128.65 1526.67 L1143.17 1526.67 Q1151.32 1526.67 1155.33 1530.07 Q1159.34 1533.48 1159.34 1540.35 Q1159.34 1544.84 1157.24 1547.8 Q1155.17 1550.76 1151.19 1551.91 M1135.08 1531.95 L1135.08 1548.82 L1143.17 1548.82 Q1147.82 1548.82 1150.17 1546.69 Q1152.56 1544.52 1152.56 1540.35 Q1152.56 1536.18 1150.17 1534.08 Q1147.82 1531.95 1143.17 1531.95 L1135.08 1531.95 Z" fill="#000000" fill-rule="nonzero" fill-opacity="1" /><path clip-path="url(#clip360)" d="M1200.78 1585.01 L1200.78 1589.56 L1166.91 1589.56 L1166.91 1585.01 L1200.78 1585.01 Z" fill="#000000" fill-rule="nonzero" fill-opacity="1" /><path clip-path="url(#clip360)" d="M1222.42 1533 L1213.7 1556.65 L1231.17 1556.65 L1222.42 1533 M1218.79 1526.67 L1226.08 1526.67 L1244.19 1574.19 L1237.51 1574.19 L1233.18 1562 L1211.76 1562 L1207.43 1574.19 L1200.65 1574.19 L1218.79 1526.67 Z" fill="#000000" fill-rule="nonzero" fill-opacity="1" /><path clip-path="url(#clip360)" d="M1252.37 1566.1 L1259.09 1566.1 L1259.09 1571.58 L1253.87 1581.76 L1249.76 1581.76 L1252.37 1571.58 L1252.37 1566.1 Z" fill="#000000" fill-rule="nonzero" fill-opacity="1" /><path clip-path="url(#clip360)" d="M1271.12 1526.67 L1277.58 1526.67 L1277.58 1555.53 Q1277.58 1563.17 1280.35 1566.55 Q1283.12 1569.89 1289.32 1569.89 Q1295.5 1569.89 1298.27 1566.55 Q1301.04 1563.17 1301.04 1555.53 L1301.04 1526.67 L1307.5 1526.67 L1307.5 1556.33 Q1307.5 1565.62 1302.88 1570.37 Q1298.3 1575.11 1289.32 1575.11 Q1280.32 1575.11 1275.7 1570.37 Q1271.12 1565.62 1271.12 1556.33 L1271.12 1526.67 Z" fill="#000000" fill-rule="nonzero" fill-opacity="1" /><path clip-path="url(#clip360)" d="M1354.1 1524.72 Q1349.83 1532.04 1347.76 1539.21 Q1345.69 1546.37 1345.69 1553.72 Q1345.69 1561.07 1347.76 1568.3 Q1349.86 1575.49 1354.1 1582.78 L1349 1582.78 Q1344.23 1575.3 1341.84 1568.07 Q1339.49 1560.85 1339.49 1553.72 Q1339.49 1546.62 1341.84 1539.43 Q1344.2 1532.24 1349 1524.72 L1354.1 1524.72 Z" fill="#000000" fill-rule="nonzero" fill-opacity="1" /><path clip-path="url(#clip360)" d="M1388.18 1539.59 L1388.18 1545.13 Q1385.7 1543.85 1383.03 1543.22 Q1380.35 1542.58 1377.49 1542.58 Q1373.13 1542.58 1370.93 1543.92 Q1368.77 1545.25 1368.77 1547.93 Q1368.77 1549.96 1370.33 1551.14 Q1371.89 1552.29 1376.6 1553.34 L1378.6 1553.78 Q1384.84 1555.12 1387.45 1557.57 Q1390.09 1559.99 1390.09 1564.35 Q1390.09 1569.32 1386.15 1572.21 Q1382.23 1575.11 1375.36 1575.11 Q1372.49 1575.11 1369.37 1574.54 Q1366.29 1573.99 1362.85 1572.88 L1362.85 1566.83 Q1366.1 1568.52 1369.25 1569.38 Q1372.4 1570.21 1375.48 1570.21 Q1379.62 1570.21 1381.85 1568.81 Q1384.08 1567.37 1384.08 1564.8 Q1384.08 1562.41 1382.45 1561.14 Q1380.86 1559.86 1375.42 1558.68 L1373.38 1558.21 Q1367.94 1557.06 1365.52 1554.71 Q1363.1 1552.32 1363.1 1548.18 Q1363.1 1543.15 1366.67 1540.42 Q1370.23 1537.68 1376.79 1537.68 Q1380.04 1537.68 1382.9 1538.16 Q1385.77 1538.63 1388.18 1539.59 Z" fill="#000000" fill-rule="nonzero" fill-opacity="1" /><path clip-path="url(#clip360)" d="M1397.64 1539.97 L1423.32 1539.97 L1423.32 1542.99 L1397.64 1542.99 L1397.64 1539.97 Z" fill="#000000" fill-rule="nonzero" fill-opacity="1" /><path clip-path="url(#clip360)" d="M1432.65 1549.42 L1439.14 1549.42 L1439.14 1529.98 L1432.04 1531.28 L1432.04 1527.59 L1439.36 1526.35 L1443.72 1526.35 L1443.72 1549.42 L1450.25 1549.42 L1450.25 1552.92 L1432.65 1552.92 L1432.65 1549.42 Z" fill="#000000" fill-rule="nonzero" fill-opacity="1" /><path clip-path="url(#clip360)" d="M1459.03 1524.72 L1464.13 1524.72 Q1468.9 1532.24 1471.26 1539.43 Q1473.64 1546.62 1473.64 1553.72 Q1473.64 1560.85 1471.26 1568.07 Q1468.9 1575.3 1464.13 1582.78 L1459.03 1582.78 Q1463.27 1575.49 1465.34 1568.3 Q1467.44 1561.07 1467.44 1553.72 Q1467.44 1546.37 1465.34 1539.21 Q1463.27 1532.04 1459.03 1524.72 Z" fill="#000000" fill-rule="nonzero" fill-opacity="1" /><polyline clip-path="url(#clip360)" style="stroke:#000000; stroke-linecap:round; stroke-linejoin:round; stroke-width:4; stroke-opacity:1; fill:none" points="249.542,1410.9 249.542,123.472 "/>
<polyline clip-path="url(#clip360)" style="stroke:#000000; stroke-linecap:round; stroke-linejoin:round; stroke-width:4; stroke-opacity:1; fill:none" points="249.542,1410.9 268.44,1410.9 "/>
<polyline clip-path="url(#clip360)" style="stroke:#000000; stroke-linecap:round; stroke-linejoin:round; stroke-width:4; stroke-opacity:1; fill:none" points="249.542,1104.37 268.44,1104.37 "/>
<polyline clip-path="url(#clip360)" style="stroke:#000000; stroke-linecap:round; stroke-linejoin:round; stroke-width:4; stroke-opacity:1; fill:none" points="249.542,797.837 268.44,797.837 "/>
<polyline clip-path="url(#clip360)" style="stroke:#000000; stroke-linecap:round; stroke-linejoin:round; stroke-width:4; stroke-opacity:1; fill:none" points="249.542,491.308 268.44,491.308 "/>
<polyline clip-path="url(#clip360)" style="stroke:#000000; stroke-linecap:round; stroke-linejoin:round; stroke-width:4; stroke-opacity:1; fill:none" points="249.542,184.778 268.44,184.778 "/>
<path clip-path="url(#clip360)" d="M126.205 1396.7 Q122.593 1396.7 120.765 1400.26 Q118.959 1403.8 118.959 1410.93 Q118.959 1418.04 120.765 1421.6 Q122.593 1425.14 126.205 1425.14 Q129.839 1425.14 131.644 1421.6 Q133.473 1418.04 133.473 1410.93 Q133.473 1403.8 131.644 1400.26 Q129.839 1396.7 126.205 1396.7 M126.205 1392.99 Q132.015 1392.99 135.07 1397.6 Q138.149 1402.18 138.149 1410.93 Q138.149 1419.66 135.07 1424.26 Q132.015 1428.85 126.205 1428.85 Q120.394 1428.85 117.316 1424.26 Q114.26 1419.66 114.26 1410.93 Q114.26 1402.18 117.316 1397.6 Q120.394 1392.99 126.205 1392.99 Z" fill="#000000" fill-rule="nonzero" fill-opacity="1" /><path clip-path="url(#clip360)" d="M146.366 1422.3 L151.251 1422.3 L151.251 1428.18 L146.366 1428.18 L146.366 1422.3 Z" fill="#000000" fill-rule="nonzero" fill-opacity="1" /><path clip-path="url(#clip360)" d="M171.436 1396.7 Q167.825 1396.7 165.996 1400.26 Q164.19 1403.8 164.19 1410.93 Q164.19 1418.04 165.996 1421.6 Q167.825 1425.14 171.436 1425.14 Q175.07 1425.14 176.876 1421.6 Q178.704 1418.04 178.704 1410.93 Q178.704 1403.8 176.876 1400.26 Q175.07 1396.7 171.436 1396.7 M171.436 1392.99 Q177.246 1392.99 180.301 1397.6 Q183.38 1402.18 183.38 1410.93 Q183.38 1419.66 180.301 1424.26 Q177.246 1428.85 171.436 1428.85 Q165.626 1428.85 162.547 1424.26 Q159.491 1419.66 159.491 1410.93 Q159.491 1402.18 162.547 1397.6 Q165.626 1392.99 171.436 1392.99 Z" fill="#000000" fill-rule="nonzero" fill-opacity="1" /><path clip-path="url(#clip360)" d="M201.598 1396.7 Q197.987 1396.7 196.158 1400.26 Q194.352 1403.8 194.352 1410.93 Q194.352 1418.04 196.158 1421.6 Q197.987 1425.14 201.598 1425.14 Q205.232 1425.14 207.037 1421.6 Q208.866 1418.04 208.866 1410.93 Q208.866 1403.8 207.037 1400.26 Q205.232 1396.7 201.598 1396.7 M201.598 1392.99 Q207.408 1392.99 210.463 1397.6 Q213.542 1402.18 213.542 1410.93 Q213.542 1419.66 210.463 1424.26 Q207.408 1428.85 201.598 1428.85 Q195.787 1428.85 192.709 1424.26 Q189.653 1419.66 189.653 1410.93 Q189.653 1402.18 192.709 1397.6 Q195.787 1392.99 201.598 1392.99 Z" fill="#000000" fill-rule="nonzero" fill-opacity="1" /><path clip-path="url(#clip360)" d="M127.2 1090.17 Q123.589 1090.17 121.76 1093.73 Q119.955 1097.27 119.955 1104.4 Q119.955 1111.51 121.76 1115.07 Q123.589 1118.61 127.2 1118.61 Q130.834 1118.61 132.64 1115.07 Q134.468 1111.51 134.468 1104.4 Q134.468 1097.27 132.64 1093.73 Q130.834 1090.17 127.2 1090.17 M127.2 1086.46 Q133.01 1086.46 136.066 1091.07 Q139.144 1095.65 139.144 1104.4 Q139.144 1113.13 136.066 1117.73 Q133.01 1122.32 127.2 1122.32 Q121.39 1122.32 118.311 1117.73 Q115.256 1113.13 115.256 1104.4 Q115.256 1095.65 118.311 1091.07 Q121.39 1086.46 127.2 1086.46 Z" fill="#000000" fill-rule="nonzero" fill-opacity="1" /><path clip-path="url(#clip360)" d="M147.362 1115.77 L152.246 1115.77 L152.246 1121.65 L147.362 1121.65 L147.362 1115.77 Z" fill="#000000" fill-rule="nonzero" fill-opacity="1" /><path clip-path="url(#clip360)" d="M166.459 1117.71 L182.778 1117.71 L182.778 1121.65 L160.834 1121.65 L160.834 1117.71 Q163.496 1114.96 168.079 1110.33 Q172.686 1105.67 173.866 1104.33 Q176.112 1101.81 176.991 1100.07 Q177.894 1098.31 177.894 1096.62 Q177.894 1093.87 175.95 1092.13 Q174.028 1090.4 170.927 1090.4 Q168.727 1090.4 166.274 1091.16 Q163.843 1091.92 161.065 1093.48 L161.065 1088.75 Q163.89 1087.62 166.343 1087.04 Q168.797 1086.46 170.834 1086.46 Q176.204 1086.46 179.399 1089.15 Q182.593 1091.83 182.593 1096.32 Q182.593 1098.45 181.783 1100.37 Q180.996 1102.27 178.889 1104.86 Q178.311 1105.54 175.209 1108.75 Q172.107 1111.95 166.459 1117.71 Z" fill="#000000" fill-rule="nonzero" fill-opacity="1" /><path clip-path="url(#clip360)" d="M192.639 1087.09 L210.996 1087.09 L210.996 1091.02 L196.922 1091.02 L196.922 1099.49 Q197.94 1099.15 198.959 1098.99 Q199.977 1098.8 200.996 1098.8 Q206.783 1098.8 210.162 1101.97 Q213.542 1105.14 213.542 1110.56 Q213.542 1116.14 210.07 1119.24 Q206.598 1122.32 200.278 1122.32 Q198.102 1122.32 195.834 1121.95 Q193.588 1121.58 191.181 1120.84 L191.181 1116.14 Q193.264 1117.27 195.487 1117.83 Q197.709 1118.38 200.186 1118.38 Q204.19 1118.38 206.528 1116.28 Q208.866 1114.17 208.866 1110.56 Q208.866 1106.95 206.528 1104.84 Q204.19 1102.74 200.186 1102.74 Q198.311 1102.74 196.436 1103.15 Q194.584 1103.57 192.639 1104.45 L192.639 1087.09 Z" fill="#000000" fill-rule="nonzero" fill-opacity="1" /><path clip-path="url(#clip360)" d="M126.205 783.636 Q122.593 783.636 120.765 787.201 Q118.959 790.742 118.959 797.872 Q118.959 804.979 120.765 808.543 Q122.593 812.085 126.205 812.085 Q129.839 812.085 131.644 808.543 Q133.473 804.979 133.473 797.872 Q133.473 790.742 131.644 787.201 Q129.839 783.636 126.205 783.636 M126.205 779.932 Q132.015 779.932 135.07 784.539 Q138.149 789.122 138.149 797.872 Q138.149 806.599 135.07 811.205 Q132.015 815.789 126.205 815.789 Q120.394 815.789 117.316 811.205 Q114.26 806.599 114.26 797.872 Q114.26 789.122 117.316 784.539 Q120.394 779.932 126.205 779.932 Z" fill="#000000" fill-rule="nonzero" fill-opacity="1" /><path clip-path="url(#clip360)" d="M146.366 809.238 L151.251 809.238 L151.251 815.117 L146.366 815.117 L146.366 809.238 Z" fill="#000000" fill-rule="nonzero" fill-opacity="1" /><path clip-path="url(#clip360)" d="M161.482 780.557 L179.839 780.557 L179.839 784.493 L165.765 784.493 L165.765 792.965 Q166.783 792.617 167.802 792.455 Q168.82 792.27 169.839 792.27 Q175.626 792.27 179.005 795.442 Q182.385 798.613 182.385 804.029 Q182.385 809.608 178.913 812.71 Q175.44 815.789 169.121 815.789 Q166.945 815.789 164.677 815.418 Q162.431 815.048 160.024 814.307 L160.024 809.608 Q162.107 810.742 164.329 811.298 Q166.552 811.853 169.028 811.853 Q173.033 811.853 175.371 809.747 Q177.709 807.641 177.709 804.029 Q177.709 800.418 175.371 798.312 Q173.033 796.205 169.028 796.205 Q167.153 796.205 165.278 796.622 Q163.427 797.039 161.482 797.918 L161.482 780.557 Z" fill="#000000" fill-rule="nonzero" fill-opacity="1" /><path clip-path="url(#clip360)" d="M201.598 783.636 Q197.987 783.636 196.158 787.201 Q194.352 790.742 194.352 797.872 Q194.352 804.979 196.158 808.543 Q197.987 812.085 201.598 812.085 Q205.232 812.085 207.037 808.543 Q208.866 804.979 208.866 797.872 Q208.866 790.742 207.037 787.201 Q205.232 783.636 201.598 783.636 M201.598 779.932 Q207.408 779.932 210.463 784.539 Q213.542 789.122 213.542 797.872 Q213.542 806.599 210.463 811.205 Q207.408 815.789 201.598 815.789 Q195.787 815.789 192.709 811.205 Q189.653 806.599 189.653 797.872 Q189.653 789.122 192.709 784.539 Q195.787 779.932 201.598 779.932 Z" fill="#000000" fill-rule="nonzero" fill-opacity="1" /><path clip-path="url(#clip360)" d="M127.2 477.106 Q123.589 477.106 121.76 480.671 Q119.955 484.213 119.955 491.342 Q119.955 498.449 121.76 502.014 Q123.589 505.555 127.2 505.555 Q130.834 505.555 132.64 502.014 Q134.468 498.449 134.468 491.342 Q134.468 484.213 132.64 480.671 Q130.834 477.106 127.2 477.106 M127.2 473.403 Q133.01 473.403 136.066 478.009 Q139.144 482.592 139.144 491.342 Q139.144 500.069 136.066 504.676 Q133.01 509.259 127.2 509.259 Q121.39 509.259 118.311 504.676 Q115.256 500.069 115.256 491.342 Q115.256 482.592 118.311 478.009 Q121.39 473.403 127.2 473.403 Z" fill="#000000" fill-rule="nonzero" fill-opacity="1" /><path clip-path="url(#clip360)" d="M147.362 502.708 L152.246 502.708 L152.246 508.588 L147.362 508.588 L147.362 502.708 Z" fill="#000000" fill-rule="nonzero" fill-opacity="1" /><path clip-path="url(#clip360)" d="M161.251 474.028 L183.473 474.028 L183.473 476.018 L170.927 508.588 L166.042 508.588 L177.848 477.963 L161.251 477.963 L161.251 474.028 Z" fill="#000000" fill-rule="nonzero" fill-opacity="1" /><path clip-path="url(#clip360)" d="M192.639 474.028 L210.996 474.028 L210.996 477.963 L196.922 477.963 L196.922 486.435 Q197.94 486.088 198.959 485.926 Q199.977 485.741 200.996 485.741 Q206.783 485.741 210.162 488.912 Q213.542 492.083 213.542 497.5 Q213.542 503.078 210.07 506.18 Q206.598 509.259 200.278 509.259 Q198.102 509.259 195.834 508.889 Q193.588 508.518 191.181 507.778 L191.181 503.078 Q193.264 504.213 195.487 504.768 Q197.709 505.324 200.186 505.324 Q204.19 505.324 206.528 503.217 Q208.866 501.111 208.866 497.5 Q208.866 493.889 206.528 491.782 Q204.19 489.676 200.186 489.676 Q198.311 489.676 196.436 490.092 Q194.584 490.509 192.639 491.389 L192.639 474.028 Z" fill="#000000" fill-rule="nonzero" fill-opacity="1" /><path clip-path="url(#clip360)" d="M117.015 198.123 L124.654 198.123 L124.654 171.757 L116.343 173.424 L116.343 169.165 L124.607 167.498 L129.283 167.498 L129.283 198.123 L136.922 198.123 L136.922 202.058 L117.015 202.058 L117.015 198.123 Z" fill="#000000" fill-rule="nonzero" fill-opacity="1" /><path clip-path="url(#clip360)" d="M146.366 196.178 L151.251 196.178 L151.251 202.058 L146.366 202.058 L146.366 196.178 Z" fill="#000000" fill-rule="nonzero" fill-opacity="1" /><path clip-path="url(#clip360)" d="M171.436 170.577 Q167.825 170.577 165.996 174.142 Q164.19 177.683 164.19 184.813 Q164.19 191.919 165.996 195.484 Q167.825 199.026 171.436 199.026 Q175.07 199.026 176.876 195.484 Q178.704 191.919 178.704 184.813 Q178.704 177.683 176.876 174.142 Q175.07 170.577 171.436 170.577 M171.436 166.873 Q177.246 166.873 180.301 171.48 Q183.38 176.063 183.38 184.813 Q183.38 193.54 180.301 198.146 Q177.246 202.729 171.436 202.729 Q165.626 202.729 162.547 198.146 Q159.491 193.54 159.491 184.813 Q159.491 176.063 162.547 171.48 Q165.626 166.873 171.436 166.873 Z" fill="#000000" fill-rule="nonzero" fill-opacity="1" /><path clip-path="url(#clip360)" d="M201.598 170.577 Q197.987 170.577 196.158 174.142 Q194.352 177.683 194.352 184.813 Q194.352 191.919 196.158 195.484 Q197.987 199.026 201.598 199.026 Q205.232 199.026 207.037 195.484 Q208.866 191.919 208.866 184.813 Q208.866 177.683 207.037 174.142 Q205.232 170.577 201.598 170.577 M201.598 166.873 Q207.408 166.873 210.463 171.48 Q213.542 176.063 213.542 184.813 Q213.542 193.54 210.463 198.146 Q207.408 202.729 201.598 202.729 Q195.787 202.729 192.709 198.146 Q189.653 193.54 189.653 184.813 Q189.653 176.063 192.709 171.48 Q195.787 166.873 201.598 166.873 Z" fill="#000000" fill-rule="nonzero" fill-opacity="1" /><path clip-path="url(#clip360)" d="M16.4842 805.442 L16.4842 778.133 L21.895 778.133 L21.895 799.013 L35.8996 799.013 L35.8996 780.17 L41.3104 780.17 L41.3104 799.013 L64.0042 799.013 L64.0042 805.442 L16.4842 805.442 Z" fill="#000000" fill-rule="nonzero" fill-opacity="1" /><path clip-path="url(#clip360)" d="M74.8259 741.117 L79.3773 741.117 L79.3773 774.982 L74.8259 774.982 L74.8259 741.117 Z" fill="#000000" fill-rule="nonzero" fill-opacity="1" /><path clip-path="url(#clip360)" d="M16.4842 735.356 L16.4842 728.926 L64.0042 728.926 L64.0042 735.356 L16.4842 735.356 Z" fill="#000000" fill-rule="nonzero" fill-opacity="1" /><path clip-path="url(#clip360)" d="M568.806 16.7545 L568.806 25.383 Q564.674 21.5346 559.975 19.6307 Q555.317 17.7268 550.051 17.7268 Q539.68 17.7268 534.171 24.0867 Q528.662 30.4061 528.662 42.3968 Q528.662 54.3469 534.171 60.7069 Q539.68 67.0263 550.051 67.0263 Q555.317 67.0263 559.975 65.1223 Q564.674 63.2184 568.806 59.3701 L568.806 67.9175 Q564.512 70.8341 559.692 72.2924 Q554.912 73.7508 549.564 73.7508 Q535.832 73.7508 527.933 65.3654 Q520.033 56.9395 520.033 42.3968 Q520.033 27.8135 527.933 19.4281 Q535.832 11.0023 549.564 11.0023 Q554.993 11.0023 559.773 12.4606 Q564.593 13.8784 568.806 16.7545 Z" fill="#000000" fill-rule="nonzero" fill-opacity="1" /><path clip-path="url(#clip360)" d="M598.702 32.4315 Q592.707 32.4315 589.223 37.1306 Q585.739 41.7891 585.739 49.9314 Q585.739 58.0738 589.182 62.7728 Q592.666 67.4314 598.702 67.4314 Q604.657 67.4314 608.141 62.7323 Q611.624 58.0333 611.624 49.9314 Q611.624 41.8701 608.141 37.1711 Q604.657 32.4315 598.702 32.4315 M598.702 26.1121 Q608.424 26.1121 613.974 32.4315 Q619.524 38.7509 619.524 49.9314 Q619.524 61.0714 613.974 67.4314 Q608.424 73.7508 598.702 73.7508 Q588.939 73.7508 583.39 67.4314 Q577.88 61.0714 577.88 49.9314 Q577.88 38.7509 583.39 32.4315 Q588.939 26.1121 598.702 26.1121 Z" fill="#000000" fill-rule="nonzero" fill-opacity="1" /><path clip-path="url(#clip360)" d="M631.879 9.54393 L639.332 9.54393 L639.332 72.576 L631.879 72.576 L631.879 9.54393 Z" fill="#000000" fill-rule="nonzero" fill-opacity="1" /><path clip-path="url(#clip360)" d="M684.784 34.0924 L684.784 9.54393 L692.237 9.54393 L692.237 72.576 L684.784 72.576 L684.784 65.7705 Q682.434 69.8214 678.829 71.8063 Q675.264 73.7508 670.241 73.7508 Q662.018 73.7508 656.832 67.1883 Q651.688 60.6258 651.688 49.9314 Q651.688 39.2371 656.832 32.6746 Q662.018 26.1121 670.241 26.1121 Q675.264 26.1121 678.829 28.0971 Q682.434 30.0415 684.784 34.0924 M659.384 49.9314 Q659.384 58.1548 662.747 62.8538 Q666.149 67.5124 672.064 67.5124 Q677.978 67.5124 681.381 62.8538 Q684.784 58.1548 684.784 49.9314 Q684.784 41.7081 681.381 37.0496 Q677.978 32.3505 672.064 32.3505 Q666.149 32.3505 662.747 37.0496 Q659.384 41.7081 659.384 49.9314 Z" fill="#000000" fill-rule="nonzero" fill-opacity="1" /><path clip-path="url(#clip360)" d="M779.575 16.7545 L779.575 25.383 Q775.443 21.5346 770.744 19.6307 Q766.085 17.7268 760.819 17.7268 Q750.449 17.7268 744.94 24.0867 Q739.43 30.4061 739.43 42.3968 Q739.43 54.3469 744.94 60.7069 Q750.449 67.0263 760.819 67.0263 Q766.085 67.0263 770.744 65.1223 Q775.443 63.2184 779.575 59.3701 L779.575 67.9175 Q775.281 70.8341 770.46 72.2924 Q765.68 73.7508 760.333 73.7508 Q746.6 73.7508 738.701 65.3654 Q730.802 56.9395 730.802 42.3968 Q730.802 27.8135 738.701 19.4281 Q746.6 11.0023 760.333 11.0023 Q765.761 11.0023 770.541 12.4606 Q775.362 13.8784 779.575 16.7545 Z" fill="#000000" fill-rule="nonzero" fill-opacity="1" /><path clip-path="url(#clip360)" d="M791.89 9.54393 L799.343 9.54393 L799.343 72.576 L791.89 72.576 L791.89 9.54393 Z" fill="#000000" fill-rule="nonzero" fill-opacity="1" /><path clip-path="url(#clip360)" d="M832.52 32.4315 Q826.525 32.4315 823.041 37.1306 Q819.557 41.7891 819.557 49.9314 Q819.557 58.0738 823 62.7728 Q826.484 67.4314 832.52 67.4314 Q838.475 67.4314 841.959 62.7323 Q845.442 58.0333 845.442 49.9314 Q845.442 41.8701 841.959 37.1711 Q838.475 32.4315 832.52 32.4315 M832.52 26.1121 Q842.242 26.1121 847.792 32.4315 Q853.342 38.7509 853.342 49.9314 Q853.342 61.0714 847.792 67.4314 Q842.242 73.7508 832.52 73.7508 Q822.757 73.7508 817.208 67.4314 Q811.698 61.0714 811.698 49.9314 Q811.698 38.7509 817.208 32.4315 Q822.757 26.1121 832.52 26.1121 Z" fill="#000000" fill-rule="nonzero" fill-opacity="1" /><path clip-path="url(#clip360)" d="M864.927 54.671 L864.927 27.2059 L872.381 27.2059 L872.381 54.3874 Q872.381 60.8284 874.893 64.0691 Q877.404 67.2693 882.427 67.2693 Q888.463 67.2693 891.947 63.421 Q895.471 59.5726 895.471 52.9291 L895.471 27.2059 L902.925 27.2059 L902.925 72.576 L895.471 72.576 L895.471 65.6084 Q892.757 69.7404 889.152 71.7658 Q885.587 73.7508 880.847 73.7508 Q873.029 73.7508 868.978 68.8897 Q864.927 64.0286 864.927 54.671 M883.683 26.1121 L883.683 26.1121 Z" fill="#000000" fill-rule="nonzero" fill-opacity="1" /><path clip-path="url(#clip360)" d="M948.133 34.0924 L948.133 9.54393 L955.587 9.54393 L955.587 72.576 L948.133 72.576 L948.133 65.7705 Q945.783 69.8214 942.178 71.8063 Q938.613 73.7508 933.59 73.7508 Q925.367 73.7508 920.182 67.1883 Q915.037 60.6258 915.037 49.9314 Q915.037 39.2371 920.182 32.6746 Q925.367 26.1121 933.59 26.1121 Q938.613 26.1121 942.178 28.0971 Q945.783 30.0415 948.133 34.0924 M922.734 49.9314 Q922.734 58.1548 926.096 62.8538 Q929.499 67.5124 935.413 67.5124 Q941.327 67.5124 944.73 62.8538 Q948.133 58.1548 948.133 49.9314 Q948.133 41.7081 944.73 37.0496 Q941.327 32.3505 935.413 32.3505 Q929.499 32.3505 926.096 37.0496 Q922.734 41.7081 922.734 49.9314 Z" fill="#000000" fill-rule="nonzero" fill-opacity="1" /><path clip-path="url(#clip360)" d="M1026.32 44.2197 Q1028.95 45.1109 1031.42 48.0275 Q1033.93 50.9442 1036.44 56.0483 L1044.75 72.576 L1035.96 72.576 L1028.22 57.061 Q1025.22 50.9847 1022.39 48.9997 Q1019.59 47.0148 1014.73 47.0148 L1005.82 47.0148 L1005.82 72.576 L997.635 72.576 L997.635 12.096 L1016.11 12.096 Q1026.48 12.096 1031.58 16.4305 Q1036.69 20.7649 1036.69 29.5149 Q1036.69 35.2267 1034.01 38.994 Q1031.38 42.7613 1026.32 44.2197 M1005.82 18.8205 L1005.82 40.2903 L1016.11 40.2903 Q1022.02 40.2903 1025.02 37.5762 Q1028.06 34.8216 1028.06 29.5149 Q1028.06 24.2082 1025.02 21.5346 Q1022.02 18.8205 1016.11 18.8205 L1005.82 18.8205 Z" fill="#000000" fill-rule="nonzero" fill-opacity="1" /><path clip-path="url(#clip360)" d="M1073.75 49.7694 Q1064.72 49.7694 1061.23 51.8354 Q1057.75 53.9013 1057.75 58.8839 Q1057.75 62.8538 1060.34 65.2034 Q1062.98 67.5124 1067.47 67.5124 Q1073.67 67.5124 1077.4 63.1374 Q1081.16 58.7219 1081.16 51.4303 L1081.16 49.7694 L1073.75 49.7694 M1088.62 46.6907 L1088.62 72.576 L1081.16 72.576 L1081.16 65.6895 Q1078.61 69.8214 1074.8 71.8063 Q1071 73.7508 1065.49 73.7508 Q1058.52 73.7508 1054.39 69.8619 Q1050.3 65.9325 1050.3 59.3701 Q1050.3 51.7138 1055.4 47.825 Q1060.55 43.9361 1070.71 43.9361 L1081.16 43.9361 L1081.16 43.2069 Q1081.16 38.0623 1077.76 35.2672 Q1074.4 32.4315 1068.28 32.4315 Q1064.39 32.4315 1060.71 33.3632 Q1057.02 34.295 1053.62 36.1584 L1053.62 29.2718 Q1057.71 27.692 1061.56 26.9223 Q1065.41 26.1121 1069.05 26.1121 Q1078.9 26.1121 1083.76 31.2163 Q1088.62 36.3204 1088.62 46.6907 Z" fill="#000000" fill-rule="nonzero" fill-opacity="1" /><path clip-path="url(#clip360)" d="M1103.97 27.2059 L1111.42 27.2059 L1111.42 72.576 L1103.97 72.576 L1103.97 27.2059 M1103.97 9.54393 L1111.42 9.54393 L1111.42 18.9825 L1103.97 18.9825 L1103.97 9.54393 Z" fill="#000000" fill-rule="nonzero" fill-opacity="1" /><path clip-path="url(#clip360)" d="M1164.73 45.1919 L1164.73 72.576 L1157.28 72.576 L1157.28 45.4349 Q1157.28 38.994 1154.77 35.7938 Q1152.26 32.5936 1147.23 32.5936 Q1141.2 32.5936 1137.72 36.4419 Q1134.23 40.2903 1134.23 46.9338 L1134.23 72.576 L1126.74 72.576 L1126.74 27.2059 L1134.23 27.2059 L1134.23 34.2544 Q1136.91 30.163 1140.51 28.1376 Q1144.16 26.1121 1148.9 26.1121 Q1156.71 26.1121 1160.72 30.9732 Q1164.73 35.7938 1164.73 45.1919 Z" fill="#000000" fill-rule="nonzero" fill-opacity="1" /><path clip-path="url(#clip360)" d="M1197.18 32.4315 Q1191.19 32.4315 1187.7 37.1306 Q1184.22 41.7891 1184.22 49.9314 Q1184.22 58.0738 1187.66 62.7728 Q1191.15 67.4314 1197.18 67.4314 Q1203.14 67.4314 1206.62 62.7323 Q1210.1 58.0333 1210.1 49.9314 Q1210.1 41.8701 1206.62 37.1711 Q1203.14 32.4315 1197.18 32.4315 M1197.18 26.1121 Q1206.9 26.1121 1212.45 32.4315 Q1218 38.7509 1218 49.9314 Q1218 61.0714 1212.45 67.4314 Q1206.9 73.7508 1197.18 73.7508 Q1187.42 73.7508 1181.87 67.4314 Q1176.36 61.0714 1176.36 49.9314 Q1176.36 38.7509 1181.87 32.4315 Q1187.42 26.1121 1197.18 26.1121 Z" fill="#000000" fill-rule="nonzero" fill-opacity="1" /><path clip-path="url(#clip360)" d="M1229.59 54.671 L1229.59 27.2059 L1237.04 27.2059 L1237.04 54.3874 Q1237.04 60.8284 1239.55 64.0691 Q1242.07 67.2693 1247.09 67.2693 Q1253.13 67.2693 1256.61 63.421 Q1260.13 59.5726 1260.13 52.9291 L1260.13 27.2059 L1267.59 27.2059 L1267.59 72.576 L1260.13 72.576 L1260.13 65.6084 Q1257.42 69.7404 1253.81 71.7658 Q1250.25 73.7508 1245.51 73.7508 Q1237.69 73.7508 1233.64 68.8897 Q1229.59 64.0286 1229.59 54.671 M1248.35 26.1121 L1248.35 26.1121 Z" fill="#000000" fill-rule="nonzero" fill-opacity="1" /><path clip-path="url(#clip360)" d="M1290.31 14.324 L1290.31 27.2059 L1305.67 27.2059 L1305.67 32.9987 L1290.31 32.9987 L1290.31 57.6282 Q1290.31 63.1779 1291.81 64.7578 Q1293.35 66.3376 1298.01 66.3376 L1305.67 66.3376 L1305.67 72.576 L1298.01 72.576 Q1289.38 72.576 1286.1 69.3758 Q1282.82 66.1351 1282.82 57.6282 L1282.82 32.9987 L1277.35 32.9987 L1277.35 27.2059 L1282.82 27.2059 L1282.82 14.324 L1290.31 14.324 Z" fill="#000000" fill-rule="nonzero" fill-opacity="1" /><path clip-path="url(#clip360)" d="M1342.16 12.096 L1380.4 12.096 L1380.4 18.9825 L1350.35 18.9825 L1350.35 36.8875 L1379.15 36.8875 L1379.15 43.7741 L1350.35 43.7741 L1350.35 65.6895 L1381.13 65.6895 L1381.13 72.576 L1342.16 72.576 L1342.16 12.096 Z" fill="#000000" fill-rule="nonzero" fill-opacity="1" /><path clip-path="url(#clip360)" d="M1417.23 9.54393 L1417.23 15.7418 L1410.1 15.7418 Q1406.09 15.7418 1404.51 17.3622 Q1402.97 18.9825 1402.97 23.1955 L1402.97 27.2059 L1415.24 27.2059 L1415.24 32.9987 L1402.97 32.9987 L1402.97 72.576 L1395.47 72.576 L1395.47 32.9987 L1388.34 32.9987 L1388.34 27.2059 L1395.47 27.2059 L1395.47 24.0462 Q1395.47 16.471 1399 13.0277 Q1402.52 9.54393 1410.18 9.54393 L1417.23 9.54393 Z" fill="#000000" fill-rule="nonzero" fill-opacity="1" /><path clip-path="url(#clip360)" d="M1446.43 9.54393 L1446.43 15.7418 L1439.31 15.7418 Q1435.29 15.7418 1433.71 17.3622 Q1432.18 18.9825 1432.18 23.1955 L1432.18 27.2059 L1444.45 27.2059 L1444.45 32.9987 L1432.18 32.9987 L1432.18 72.576 L1424.68 72.576 L1424.68 32.9987 L1417.55 32.9987 L1417.55 27.2059 L1424.68 27.2059 L1424.68 24.0462 Q1424.68 16.471 1428.21 13.0277 Q1431.73 9.54393 1439.39 9.54393 L1446.43 9.54393 Z" fill="#000000" fill-rule="nonzero" fill-opacity="1" /><path clip-path="url(#clip360)" d="M1452.67 27.2059 L1460.13 27.2059 L1460.13 72.576 L1452.67 72.576 L1452.67 27.2059 M1452.67 9.54393 L1460.13 9.54393 L1460.13 18.9825 L1452.67 18.9825 L1452.67 9.54393 Z" fill="#000000" fill-rule="nonzero" fill-opacity="1" /><path clip-path="url(#clip360)" d="M1508.37 28.9478 L1508.37 35.9153 Q1505.21 34.1734 1502.01 33.3227 Q1498.85 32.4315 1495.61 32.4315 Q1488.36 32.4315 1484.35 37.0496 Q1480.34 41.6271 1480.34 49.9314 Q1480.34 58.2358 1484.35 62.8538 Q1488.36 67.4314 1495.61 67.4314 Q1498.85 67.4314 1502.01 66.5807 Q1505.21 65.6895 1508.37 63.9476 L1508.37 70.8341 Q1505.25 72.2924 1501.89 73.0216 Q1498.57 73.7508 1494.8 73.7508 Q1484.55 73.7508 1478.52 67.3098 Q1472.48 60.8689 1472.48 49.9314 Q1472.48 38.832 1478.56 32.472 Q1484.68 26.1121 1495.29 26.1121 Q1498.73 26.1121 1502.01 26.8413 Q1505.29 27.5299 1508.37 28.9478 Z" fill="#000000" fill-rule="nonzero" fill-opacity="1" /><path clip-path="url(#clip360)" d="M1521.34 27.2059 L1528.79 27.2059 L1528.79 72.576 L1521.34 72.576 L1521.34 27.2059 M1521.34 9.54393 L1528.79 9.54393 L1528.79 18.9825 L1521.34 18.9825 L1521.34 9.54393 Z" fill="#000000" fill-rule="nonzero" fill-opacity="1" /><path clip-path="url(#clip360)" d="M1583.19 48.0275 L1583.19 51.6733 L1548.92 51.6733 Q1549.41 59.3701 1553.54 63.421 Q1557.71 67.4314 1565.13 67.4314 Q1569.42 67.4314 1573.43 66.3781 Q1577.48 65.3249 1581.45 63.2184 L1581.45 70.267 Q1577.44 71.9684 1573.23 72.8596 Q1569.02 73.7508 1564.68 73.7508 Q1553.82 73.7508 1547.46 67.4314 Q1541.14 61.1119 1541.14 50.3365 Q1541.14 39.1965 1547.14 32.6746 Q1553.18 26.1121 1563.38 26.1121 Q1572.54 26.1121 1577.85 32.0264 Q1583.19 37.9003 1583.19 48.0275 M1575.74 45.84 Q1575.66 39.7232 1572.3 36.0774 Q1568.97 32.4315 1563.47 32.4315 Q1557.23 32.4315 1553.46 35.9558 Q1549.73 39.4801 1549.17 45.8805 L1575.74 45.84 Z" fill="#000000" fill-rule="nonzero" fill-opacity="1" /><path clip-path="url(#clip360)" d="M1633.14 45.1919 L1633.14 72.576 L1625.69 72.576 L1625.69 45.4349 Q1625.69 38.994 1623.18 35.7938 Q1620.66 32.5936 1615.64 32.5936 Q1609.61 32.5936 1606.12 36.4419 Q1602.64 40.2903 1602.64 46.9338 L1602.64 72.576 L1595.14 72.576 L1595.14 27.2059 L1602.64 27.2059 L1602.64 34.2544 Q1605.31 30.163 1608.92 28.1376 Q1612.56 26.1121 1617.3 26.1121 Q1625.12 26.1121 1629.13 30.9732 Q1633.14 35.7938 1633.14 45.1919 Z" fill="#000000" fill-rule="nonzero" fill-opacity="1" /><path clip-path="url(#clip360)" d="M1680.66 28.9478 L1680.66 35.9153 Q1677.5 34.1734 1674.3 33.3227 Q1671.14 32.4315 1667.9 32.4315 Q1660.65 32.4315 1656.64 37.0496 Q1652.63 41.6271 1652.63 49.9314 Q1652.63 58.2358 1656.64 62.8538 Q1660.65 67.4314 1667.9 67.4314 Q1671.14 67.4314 1674.3 66.5807 Q1677.5 65.6895 1680.66 63.9476 L1680.66 70.8341 Q1677.54 72.2924 1674.18 73.0216 Q1670.85 73.7508 1667.09 73.7508 Q1656.84 73.7508 1650.8 67.3098 Q1644.77 60.8689 1644.77 49.9314 Q1644.77 38.832 1650.84 32.472 Q1656.96 26.1121 1667.57 26.1121 Q1671.02 26.1121 1674.3 26.8413 Q1677.58 27.5299 1680.66 28.9478 Z" fill="#000000" fill-rule="nonzero" fill-opacity="1" /><path clip-path="url(#clip360)" d="M1712.5 76.7889 Q1709.34 84.8907 1706.34 87.3618 Q1703.34 89.8329 1698.32 89.8329 L1692.37 89.8329 L1692.37 83.5945 L1696.74 83.5945 Q1699.82 83.5945 1701.52 82.1361 Q1703.22 80.6778 1705.29 75.2496 L1706.62 71.8468 L1688.27 27.2059 L1696.17 27.2059 L1710.35 62.6918 L1724.53 27.2059 L1732.43 27.2059 L1712.5 76.7889 Z" fill="#000000" fill-rule="nonzero" fill-opacity="1" /><path clip-path="url(#clip360)" d="M1786.99 9.62495 Q1781.57 18.942 1778.93 28.0566 Q1776.3 37.1711 1776.3 46.5287 Q1776.3 55.8863 1778.93 65.0818 Q1781.61 74.2369 1786.99 83.5134 L1780.51 83.5134 Q1774.44 73.9938 1771.4 64.7983 Q1768.4 55.6027 1768.4 46.5287 Q1768.4 37.4952 1771.4 28.3401 Q1774.4 19.1851 1780.51 9.62495 L1786.99 9.62495 Z" fill="#000000" fill-rule="nonzero" fill-opacity="1" /><path clip-path="url(#clip360)" d="M1801.78 12.096 L1840.02 12.096 L1840.02 18.9825 L1809.96 18.9825 L1809.96 36.8875 L1838.76 36.8875 L1838.76 43.7741 L1809.96 43.7741 L1809.96 65.6895 L1840.75 65.6895 L1840.75 72.576 L1801.78 72.576 L1801.78 12.096 Z" fill="#000000" fill-rule="nonzero" fill-opacity="1" /><path clip-path="url(#clip360)" d="M1858.33 49.9314 Q1858.33 58.1548 1861.69 62.8538 Q1865.1 67.5124 1871.01 67.5124 Q1876.92 67.5124 1880.33 62.8538 Q1883.73 58.1548 1883.73 49.9314 Q1883.73 41.7081 1880.33 37.0496 Q1876.92 32.3505 1871.01 32.3505 Q1865.1 32.3505 1861.69 37.0496 Q1858.33 41.7081 1858.33 49.9314 M1883.73 65.7705 Q1881.38 69.8214 1877.77 71.8063 Q1874.21 73.7508 1869.19 73.7508 Q1860.96 73.7508 1855.78 67.1883 Q1850.63 60.6258 1850.63 49.9314 Q1850.63 39.2371 1855.78 32.6746 Q1860.96 26.1121 1869.19 26.1121 Q1874.21 26.1121 1877.77 28.0971 Q1881.38 30.0415 1883.73 34.0924 L1883.73 27.2059 L1891.18 27.2059 L1891.18 89.8329 L1883.73 89.8329 L1883.73 65.7705 Z" fill="#000000" fill-rule="nonzero" fill-opacity="1" /><path clip-path="url(#clip360)" d="M1907.59 62.2867 L1916.14 62.2867 L1916.14 72.576 L1907.59 72.576 L1907.59 62.2867 Z" fill="#000000" fill-rule="nonzero" fill-opacity="1" /><path clip-path="url(#clip360)" d="M1961.75 65.6895 L1975.12 65.6895 L1975.12 19.5497 L1960.58 22.4663 L1960.58 15.0127 L1975.04 12.096 L1983.22 12.096 L1983.22 65.6895 L1996.59 65.6895 L1996.59 72.576 L1961.75 72.576 L1961.75 65.6895 Z" fill="#000000" fill-rule="nonzero" fill-opacity="1" /><path clip-path="url(#clip360)" d="M2020.16 65.6895 L2048.72 65.6895 L2048.72 72.576 L2010.32 72.576 L2010.32 65.6895 Q2014.98 60.8689 2023 52.7671 Q2031.06 44.6248 2033.13 42.2752 Q2037.06 37.8598 2038.6 34.8216 Q2040.18 31.7429 2040.18 28.7857 Q2040.18 23.9651 2036.77 20.927 Q2033.41 17.8888 2027.98 17.8888 Q2024.13 17.8888 2019.84 19.2256 Q2015.59 20.5624 2010.73 23.2765 L2010.73 15.0127 Q2015.67 13.0277 2019.96 12.015 Q2024.26 11.0023 2027.82 11.0023 Q2037.22 11.0023 2042.81 15.7013 Q2048.4 20.4004 2048.4 28.2591 Q2048.4 31.9859 2046.98 35.3482 Q2045.6 38.6699 2041.92 43.2069 Q2040.9 44.3817 2035.48 50.0125 Q2030.05 55.6027 2020.16 65.6895 Z" fill="#000000" fill-rule="nonzero" fill-opacity="1" /><path clip-path="url(#clip360)" d="M2063.67 9.62495 L2070.15 9.62495 Q2076.23 19.1851 2079.23 28.3401 Q2082.26 37.4952 2082.26 46.5287 Q2082.26 55.6027 2079.23 64.7983 Q2076.23 73.9938 2070.15 83.5134 L2063.67 83.5134 Q2069.06 74.2369 2071.69 65.0818 Q2074.37 55.8863 2074.37 46.5287 Q2074.37 37.1711 2071.69 28.0566 Q2069.06 18.942 2063.67 9.62495 Z" fill="#000000" fill-rule="nonzero" fill-opacity="1" /><polyline clip-path="url(#clip361)" style="stroke:#009af9; stroke-linecap:round; stroke-linejoin:round; stroke-width:4; stroke-opacity:1; fill:none" points="309.067,1410.16 329.109,1410.09 349.151,1410.01 369.193,1409.92 389.235,1409.83 409.277,1409.73 429.319,1409.61 449.361,1409.49 469.403,1409.35 489.446,1409.2 509.488,1409.03 529.53,1408.85 549.572,1408.65 569.614,1408.43 589.656,1408.19 609.698,1407.93 629.74,1407.64 649.782,1407.32 669.824,1406.98 689.866,1406.6 709.908,1406.18 729.95,1405.72 749.992,1405.21 770.034,1404.66 790.076,1404.05 810.118,1403.39 830.161,1402.66 850.203,1401.86 870.245,1400.98 890.287,1400.02 910.329,1398.97 930.371,1397.81 950.413,1396.54 970.455,1395.15 990.497,1393.62 1010.54,1391.95 1030.58,1390.12 1050.62,1388.12 1070.67,1385.92 1090.71,1383.51 1110.75,1380.87 1130.79,1377.98 1150.83,1374.82 1170.88,1371.36 1190.92,1367.58 1210.96,1363.44 1231,1358.91 1251.04,1353.96 1271.09,1348.55 1291.13,1342.65 1311.17,1336.2 1331.21,1329.16 1351.25,1321.49 1371.3,1313.13 1391.34,1304.03 1411.38,1294.12 1431.42,1283.35 1451.46,1271.65 1471.51,1258.95 1491.55,1245.18 1511.59,1230.27 1531.63,1214.15 1551.67,1196.75 1571.72,1177.98 1591.76,1157.79 1611.8,1136.1 1631.84,1112.85 1651.89,1087.99 1671.93,1061.47 1691.97,1033.26 1712.01,1003.35 1732.05,971.729 1752.1,938.43 1772.14,903.504 1792.18,867.033 1812.22,829.132 1832.26,789.955 1852.31,749.695 1872.35,708.586 1892.39,666.903 1912.43,624.964 1932.47,583.123 1952.52,541.766 1972.56,501.301 1992.6,462.151 2012.64,424.734 2032.68,389.452 2052.73,356.672 2072.77,326.706 2092.81,299.796 2112.85,276.096 2132.89,255.668 2152.94,238.467 2172.98,224.353 2193.02,213.094 2213.06,204.388 2233.1,197.881 2253.15,193.195 2273.19,189.957 2293.23,187.817 "/>
<polyline clip-path="url(#clip361)" style="stroke:#e26f46; stroke-linecap:round; stroke-linejoin:round; stroke-width:4; stroke-opacity:1; fill:none" points="309.067,1407.22 329.109,1406.87 349.151,1406.47 369.193,1406.04 389.235,1405.57 409.277,1405.05 429.319,1404.49 449.361,1403.86 469.403,1403.18 489.446,1402.43 509.488,1401.61 529.53,1400.7 549.572,1399.71 569.614,1398.63 589.656,1397.44 609.698,1396.14 629.74,1394.71 649.782,1393.14 669.824,1391.42 689.866,1389.54 709.908,1387.48 729.95,1385.22 749.992,1382.74 770.034,1380.03 790.076,1377.07 810.118,1373.82 830.161,1370.27 850.203,1366.38 870.245,1362.12 890.287,1357.47 910.329,1352.39 930.371,1346.84 950.413,1340.77 970.455,1334.16 990.497,1326.94 1010.54,1319.06 1030.58,1310.49 1050.62,1301.15 1070.67,1290.99 1090.71,1279.94 1110.75,1267.95 1130.79,1254.94 1150.83,1240.84 1170.88,1225.57 1190.92,1209.08 1210.96,1191.27 1231,1172.09 1251.04,1151.45 1271.09,1129.3 1291.13,1105.58 1311.17,1080.23 1331.21,1053.2 1351.25,1024.48 1371.3,994.056 1391.34,961.93 1411.38,928.137 1431.42,892.738 1451.46,855.825 1471.51,817.524 1491.55,778.001 1511.59,737.46 1531.63,696.148 1551.67,654.353 1571.72,612.405 1591.76,570.667 1611.8,529.534 1631.84,489.418 1651.89,450.744 1671.93,413.926 1691.97,379.357 1712.01,347.39 1732.05,318.317 1752.1,292.356 1772.14,269.635 1792.18,250.182 1812.22,233.925 1832.26,220.694 1852.31,210.234 1872.35,202.225 1892.39,196.304 1912.43,192.09 1932.47,189.216 1952.52,187.343 1972.56,186.184 1992.6,185.504 2012.64,185.13 2032.68,184.937 2052.73,184.844 2072.77,184.804 2092.81,184.787 2112.85,184.781 2132.89,184.779 2152.94,184.778 2172.98,184.778 2193.02,184.778 2213.06,184.778 2233.1,184.778 2253.15,184.778 2273.19,184.778 2293.23,184.778 "/>
<polyline clip-path="url(#clip361)" style="stroke:#3da44d; stroke-linecap:round; stroke-linejoin:round; stroke-width:4; stroke-opacity:1; fill:none" points="309.067,1403.56 329.109,1402.85 349.151,1402.07 369.193,1401.21 389.235,1400.27 409.277,1399.24 429.319,1398.11 449.361,1396.87 469.403,1395.51 489.446,1394.02 509.488,1392.39 529.53,1390.6 549.572,1388.63 569.614,1386.49 589.656,1384.13 609.698,1381.55 629.74,1378.73 649.782,1375.64 669.824,1372.26 689.866,1368.56 709.908,1364.51 729.95,1360.08 749.992,1355.24 770.034,1349.95 790.076,1344.17 810.118,1337.86 830.161,1330.98 850.203,1323.47 870.245,1315.29 890.287,1306.38 910.329,1296.68 930.371,1286.13 950.413,1274.66 970.455,1262.22 990.497,1248.72 1010.54,1234.11 1030.58,1218.3 1050.62,1201.22 1070.67,1182.81 1090.71,1162.98 1110.75,1141.67 1130.79,1118.82 1150.83,1094.36 1170.88,1068.26 1190.92,1040.48 1210.96,1010.99 1231,979.793 1251.04,946.91 1271.09,912.384 1291.13,876.29 1311.17,838.734 1331.21,799.859 1351.25,759.85 1371.3,718.928 1391.34,677.361 1411.38,635.454 1431.42,593.553 1451.46,552.038 1471.51,511.311 1491.55,471.792 1511.59,433.903 1531.63,398.052 1551.67,364.615 1571.72,333.919 1591.76,306.227 1611.8,281.715 1631.84,260.469 1651.89,242.47 1671.93,227.603 1691.97,215.657 1712.01,206.344 1732.05,199.322 1752.1,194.217 1772.14,190.651 1792.18,188.267 1812.22,186.748 1832.26,185.83 1852.31,185.307 1872.35,185.026 1892.39,184.886 1912.43,184.822 1932.47,184.794 1952.52,184.783 1972.56,184.78 1992.6,184.778 2012.64,184.778 2032.68,184.778 2052.73,184.778 2072.77,184.778 2092.81,184.778 2112.85,184.778 2132.89,184.778 2152.94,184.778 2172.98,184.778 2193.02,184.778 2213.06,184.778 2233.1,184.778 2253.15,184.778 2273.19,184.778 2293.23,184.778 "/>
<polyline clip-path="url(#clip361)" style="stroke:#c271d2; stroke-linecap:round; stroke-linejoin:round; stroke-width:4; stroke-opacity:1; fill:none" points="309.067,1389.02 329.109,1386.91 349.151,1384.6 369.193,1382.07 389.235,1379.29 409.277,1376.25 429.319,1372.93 449.361,1369.29 469.403,1365.31 489.446,1360.96 509.488,1356.2 529.53,1351 549.572,1345.32 569.614,1339.11 589.656,1332.34 609.698,1324.96 629.74,1316.91 649.782,1308.14 669.824,1298.6 689.866,1288.21 709.908,1276.93 729.95,1264.68 749.992,1251.39 770.034,1236.99 790.076,1221.42 810.118,1204.59 830.161,1186.43 850.203,1166.88 870.245,1145.86 890.287,1123.31 910.329,1099.16 930.371,1073.38 950.413,1045.92 970.455,1016.76 990.497,985.89 1010.54,953.327 1030.58,919.111 1050.62,883.309 1070.67,846.023 1090.71,807.388 1110.75,767.58 1130.79,726.813 1150.83,685.347 1170.88,643.479 1190.92,601.549 1210.96,559.929 1231,519.019 1251.04,479.237 1271.09,441.004 1291.13,404.733 1311.17,370.807 1331.21,339.564 1351.25,311.281 1371.3,286.152 1391.34,264.279 1411.38,245.666 1431.42,230.213 1451.46,217.728 1471.51,207.937 1491.55,200.505 1511.59,195.063 1531.63,191.231 1551.67,188.647 1571.72,186.985 1591.76,185.97 1611.8,185.384 1631.84,185.067 1651.89,184.906 1671.93,184.83 1691.97,184.798 1712.01,184.785 1732.05,184.78 1752.1,184.779 1772.14,184.778 1792.18,184.778 1812.22,184.778 1832.26,184.778 1852.31,184.778 1872.35,184.778 1892.39,184.778 1912.43,184.778 1932.47,184.778 1952.52,184.778 1972.56,184.778 1992.6,184.778 2012.64,184.778 2032.68,184.778 2052.73,184.778 2072.77,184.778 2092.81,184.778 2112.85,184.778 2132.89,184.778 2152.94,184.778 2172.98,184.778 2193.02,184.778 2213.06,184.778 2233.1,184.778 2253.15,184.778 2273.19,184.778 2293.23,184.778 "/>
<polyline clip-path="url(#clip361)" style="stroke:#ac8d18; stroke-linecap:round; stroke-linejoin:round; stroke-width:4; stroke-opacity:1; fill:none" points="309.067,1367.54 329.109,1363.4 349.151,1358.87 369.193,1353.91 389.235,1348.5 409.277,1342.59 429.319,1336.14 449.361,1329.1 469.403,1321.42 489.446,1313.05 509.488,1303.94 529.53,1294.03 549.572,1283.24 569.614,1271.53 589.656,1258.82 609.698,1245.05 629.74,1230.13 649.782,1214 669.824,1196.58 689.866,1177.8 709.908,1157.6 729.95,1135.89 749.992,1112.63 770.034,1087.76 790.076,1061.22 810.118,1033 830.161,1003.06 850.203,971.429 870.245,938.114 890.287,903.174 910.329,866.689 930.371,828.776 950.413,789.588 970.455,749.319 990.497,708.202 1010.54,666.516 1030.58,624.576 1050.62,582.738 1070.67,541.387 1090.71,500.933 1110.75,461.797 1130.79,424.398 1150.83,389.137 1170.88,356.382 1190.92,326.443 1210.96,299.562 1231,275.893 1251.04,255.494 1271.09,238.323 1291.13,224.236 1311.17,213.003 1331.21,204.318 1351.25,197.83 1371.3,193.159 1391.34,189.933 1411.38,187.802 1431.42,186.462 1451.46,185.664 1471.51,185.215 1491.55,184.98 1511.59,184.864 1531.63,184.812 1551.67,184.79 1571.72,184.782 1591.76,184.779 1611.8,184.778 1631.84,184.778 1651.89,184.778 1671.93,184.778 1691.97,184.778 1712.01,184.778 1732.05,184.778 1752.1,184.778 1772.14,184.778 1792.18,184.778 1812.22,184.778 1832.26,184.778 1852.31,184.778 1872.35,184.778 1892.39,184.778 1912.43,184.778 1932.47,184.778 1952.52,184.778 1972.56,184.778 1992.6,184.778 2012.64,184.778 2032.68,184.778 2052.73,184.778 2072.77,184.778 2092.81,184.778 2112.85,184.778 2132.89,184.778 2152.94,184.778 2172.98,184.778 2193.02,184.778 2213.06,184.778 2233.1,184.778 2253.15,184.778 2273.19,184.778 2293.23,184.778 "/>
<path clip-path="url(#clip360)" d="M319.649 477.426 L808.58 477.426 L808.58 166.386 L319.649 166.386  Z" fill="#ffffff" fill-rule="evenodd" fill-opacity="1"/>
<polyline clip-path="url(#clip360)" style="stroke:#000000; stroke-linecap:round; stroke-linejoin:round; stroke-width:4; stroke-opacity:1; fill:none" points="319.649,477.426 808.58,477.426 808.58,166.386 319.649,166.386 319.649,477.426 "/>
<polyline clip-path="url(#clip360)" style="stroke:#009af9; stroke-linecap:round; stroke-linejoin:round; stroke-width:4; stroke-opacity:1; fill:none" points="343.018,218.226 483.232,218.226 "/>
<path clip-path="url(#clip360)" d="M522.435 205.553 L512.944 231.617 L531.949 231.617 L522.435 205.553 M506.602 235.506 L519.796 200.946 L525.097 200.946 L538.268 235.506 L506.602 235.506 Z" fill="#000000" fill-rule="nonzero" fill-opacity="1" /><path clip-path="url(#clip360)" d="M547.342 202.219 L547.342 209.58 L556.115 209.58 L556.115 212.891 L547.342 212.891 L547.342 226.965 Q547.342 230.136 548.199 231.039 Q549.078 231.941 551.74 231.941 L556.115 231.941 L556.115 235.506 L551.74 235.506 Q546.81 235.506 544.935 233.678 Q543.06 231.826 543.06 226.965 L543.06 212.891 L539.935 212.891 L539.935 209.58 L543.06 209.58 L543.06 202.219 L547.342 202.219 Z" fill="#000000" fill-rule="nonzero" fill-opacity="1" /><path clip-path="url(#clip360)" d="M577.342 213.979 L607.018 213.979 L607.018 217.867 L577.342 217.867 L577.342 213.979 M577.342 223.423 L607.018 223.423 L607.018 227.358 L577.342 227.358 L577.342 223.423 Z" fill="#000000" fill-rule="nonzero" fill-opacity="1" /><path clip-path="url(#clip360)" d="M642.758 216.363 Q639.61 216.363 637.758 218.516 Q635.93 220.668 635.93 224.418 Q635.93 228.145 637.758 230.321 Q639.61 232.474 642.758 232.474 Q645.906 232.474 647.735 230.321 Q649.587 228.145 649.587 224.418 Q649.587 220.668 647.735 218.516 Q645.906 216.363 642.758 216.363 M652.041 201.71 L652.041 205.969 Q650.281 205.136 648.476 204.696 Q646.693 204.256 644.934 204.256 Q640.304 204.256 637.851 207.381 Q635.42 210.506 635.073 216.826 Q636.439 214.812 638.499 213.747 Q640.559 212.659 643.036 212.659 Q648.244 212.659 651.254 215.83 Q654.286 218.979 654.286 224.418 Q654.286 229.742 651.138 232.96 Q647.99 236.178 642.758 236.178 Q636.763 236.178 633.592 231.594 Q630.42 226.988 630.42 218.261 Q630.42 210.067 634.309 205.206 Q638.198 200.321 644.749 200.321 Q646.508 200.321 648.291 200.669 Q650.096 201.016 652.041 201.71 Z" fill="#000000" fill-rule="nonzero" fill-opacity="1" /><path clip-path="url(#clip360)" d="M672.341 204.025 Q668.73 204.025 666.902 207.59 Q665.096 211.131 665.096 218.261 Q665.096 225.367 666.902 228.932 Q668.73 232.474 672.341 232.474 Q675.976 232.474 677.781 228.932 Q679.61 225.367 679.61 218.261 Q679.61 211.131 677.781 207.59 Q675.976 204.025 672.341 204.025 M672.341 200.321 Q678.152 200.321 681.207 204.928 Q684.286 209.511 684.286 218.261 Q684.286 226.988 681.207 231.594 Q678.152 236.178 672.341 236.178 Q666.531 236.178 663.453 231.594 Q660.397 226.988 660.397 218.261 Q660.397 209.511 663.453 204.928 Q666.531 200.321 672.341 200.321 Z" fill="#000000" fill-rule="nonzero" fill-opacity="1" /><path clip-path="url(#clip360)" d="M723.498 210.344 L723.498 214.372 Q721.693 213.446 719.749 212.983 Q717.804 212.52 715.721 212.52 Q712.549 212.52 710.952 213.493 Q709.378 214.465 709.378 216.409 Q709.378 217.891 710.512 218.747 Q711.647 219.58 715.073 220.344 L716.531 220.668 Q721.068 221.641 722.966 223.423 Q724.887 225.182 724.887 228.354 Q724.887 231.965 722.017 234.071 Q719.17 236.178 714.17 236.178 Q712.087 236.178 709.818 235.761 Q707.573 235.367 705.073 234.557 L705.073 230.159 Q707.434 231.386 709.725 232.011 Q712.017 232.613 714.262 232.613 Q717.272 232.613 718.892 231.594 Q720.512 230.553 720.512 228.678 Q720.512 226.942 719.332 226.016 Q718.174 225.09 714.216 224.233 L712.735 223.886 Q708.776 223.053 707.017 221.34 Q705.258 219.604 705.258 216.594 Q705.258 212.937 707.85 210.946 Q710.443 208.955 715.211 208.955 Q717.573 208.955 719.656 209.303 Q721.739 209.65 723.498 210.344 Z" fill="#000000" fill-rule="nonzero" fill-opacity="1" /><polyline clip-path="url(#clip360)" style="stroke:#e26f46; stroke-linecap:round; stroke-linejoin:round; stroke-width:4; stroke-opacity:1; fill:none" points="343.018,270.066 483.232,270.066 "/>
<path clip-path="url(#clip360)" d="M522.435 257.393 L512.944 283.457 L531.949 283.457 L522.435 257.393 M506.602 287.346 L519.796 252.786 L525.097 252.786 L538.268 287.346 L506.602 287.346 Z" fill="#000000" fill-rule="nonzero" fill-opacity="1" /><path clip-path="url(#clip360)" d="M547.342 254.059 L547.342 261.42 L556.115 261.42 L556.115 264.731 L547.342 264.731 L547.342 278.805 Q547.342 281.976 548.199 282.879 Q549.078 283.781 551.74 283.781 L556.115 283.781 L556.115 287.346 L551.74 287.346 Q546.81 287.346 544.935 285.518 Q543.06 283.666 543.06 278.805 L543.06 264.731 L539.935 264.731 L539.935 261.42 L543.06 261.42 L543.06 254.059 L547.342 254.059 Z" fill="#000000" fill-rule="nonzero" fill-opacity="1" /><path clip-path="url(#clip360)" d="M577.342 265.819 L607.018 265.819 L607.018 269.707 L577.342 269.707 L577.342 265.819 M577.342 275.263 L607.018 275.263 L607.018 279.198 L577.342 279.198 L577.342 275.263 Z" fill="#000000" fill-rule="nonzero" fill-opacity="1" /><path clip-path="url(#clip360)" d="M646.346 268.712 Q649.703 269.43 651.578 271.698 Q653.476 273.967 653.476 277.3 Q653.476 282.416 649.957 285.217 Q646.439 288.018 639.957 288.018 Q637.781 288.018 635.467 287.578 Q633.175 287.161 630.721 286.305 L630.721 281.791 Q632.666 282.925 634.98 283.504 Q637.295 284.082 639.818 284.082 Q644.217 284.082 646.508 282.346 Q648.823 280.61 648.823 277.3 Q648.823 274.244 646.67 272.532 Q644.541 270.795 640.721 270.795 L636.693 270.795 L636.693 266.953 L640.906 266.953 Q644.355 266.953 646.184 265.587 Q648.013 264.198 648.013 261.606 Q648.013 258.944 646.115 257.532 Q644.24 256.096 640.721 256.096 Q638.8 256.096 636.601 256.513 Q634.402 256.93 631.763 257.809 L631.763 253.643 Q634.425 252.902 636.74 252.532 Q639.078 252.161 641.138 252.161 Q646.462 252.161 649.564 254.592 Q652.666 256.999 652.666 261.12 Q652.666 263.99 651.022 265.981 Q649.379 267.948 646.346 268.712 Z" fill="#000000" fill-rule="nonzero" fill-opacity="1" /><path clip-path="url(#clip360)" d="M672.341 255.865 Q668.73 255.865 666.902 259.43 Q665.096 262.971 665.096 270.101 Q665.096 277.207 666.902 280.772 Q668.73 284.314 672.341 284.314 Q675.976 284.314 677.781 280.772 Q679.61 277.207 679.61 270.101 Q679.61 262.971 677.781 259.43 Q675.976 255.865 672.341 255.865 M672.341 252.161 Q678.152 252.161 681.207 256.768 Q684.286 261.351 684.286 270.101 Q684.286 278.828 681.207 283.434 Q678.152 288.018 672.341 288.018 Q666.531 288.018 663.453 283.434 Q660.397 278.828 660.397 270.101 Q660.397 261.351 663.453 256.768 Q666.531 252.161 672.341 252.161 Z" fill="#000000" fill-rule="nonzero" fill-opacity="1" /><path clip-path="url(#clip360)" d="M702.503 255.865 Q698.892 255.865 697.063 259.43 Q695.258 262.971 695.258 270.101 Q695.258 277.207 697.063 280.772 Q698.892 284.314 702.503 284.314 Q706.137 284.314 707.943 280.772 Q709.772 277.207 709.772 270.101 Q709.772 262.971 707.943 259.43 Q706.137 255.865 702.503 255.865 M702.503 252.161 Q708.313 252.161 711.369 256.768 Q714.448 261.351 714.448 270.101 Q714.448 278.828 711.369 283.434 Q708.313 288.018 702.503 288.018 Q696.693 288.018 693.614 283.434 Q690.559 278.828 690.559 270.101 Q690.559 261.351 693.614 256.768 Q696.693 252.161 702.503 252.161 Z" fill="#000000" fill-rule="nonzero" fill-opacity="1" /><path clip-path="url(#clip360)" d="M753.66 262.184 L753.66 266.212 Q751.855 265.286 749.91 264.823 Q747.966 264.36 745.883 264.36 Q742.711 264.36 741.114 265.333 Q739.54 266.305 739.54 268.249 Q739.54 269.731 740.674 270.587 Q741.809 271.42 745.234 272.184 L746.693 272.508 Q751.23 273.481 753.128 275.263 Q755.049 277.022 755.049 280.194 Q755.049 283.805 752.179 285.911 Q749.332 288.018 744.332 288.018 Q742.248 288.018 739.98 287.601 Q737.735 287.207 735.235 286.397 L735.235 281.999 Q737.596 283.226 739.887 283.851 Q742.179 284.453 744.424 284.453 Q747.434 284.453 749.054 283.434 Q750.674 282.393 750.674 280.518 Q750.674 278.782 749.494 277.856 Q748.336 276.93 744.378 276.073 L742.897 275.726 Q738.938 274.893 737.179 273.18 Q735.42 271.444 735.42 268.434 Q735.42 264.777 738.012 262.786 Q740.605 260.795 745.373 260.795 Q747.734 260.795 749.818 261.143 Q751.901 261.49 753.66 262.184 Z" fill="#000000" fill-rule="nonzero" fill-opacity="1" /><polyline clip-path="url(#clip360)" style="stroke:#3da44d; stroke-linecap:round; stroke-linejoin:round; stroke-width:4; stroke-opacity:1; fill:none" points="343.018,321.906 483.232,321.906 "/>
<path clip-path="url(#clip360)" d="M522.435 309.233 L512.944 335.297 L531.949 335.297 L522.435 309.233 M506.602 339.186 L519.796 304.626 L525.097 304.626 L538.268 339.186 L506.602 339.186 Z" fill="#000000" fill-rule="nonzero" fill-opacity="1" /><path clip-path="url(#clip360)" d="M547.342 305.899 L547.342 313.26 L556.115 313.26 L556.115 316.571 L547.342 316.571 L547.342 330.645 Q547.342 333.816 548.199 334.719 Q549.078 335.621 551.74 335.621 L556.115 335.621 L556.115 339.186 L551.74 339.186 Q546.81 339.186 544.935 337.358 Q543.06 335.506 543.06 330.645 L543.06 316.571 L539.935 316.571 L539.935 313.26 L543.06 313.26 L543.06 305.899 L547.342 305.899 Z" fill="#000000" fill-rule="nonzero" fill-opacity="1" /><path clip-path="url(#clip360)" d="M577.342 317.659 L607.018 317.659 L607.018 321.547 L577.342 321.547 L577.342 317.659 M577.342 327.103 L607.018 327.103 L607.018 331.038 L577.342 331.038 L577.342 327.103 Z" fill="#000000" fill-rule="nonzero" fill-opacity="1" /><path clip-path="url(#clip360)" d="M642.758 320.043 Q639.61 320.043 637.758 322.196 Q635.93 324.348 635.93 328.098 Q635.93 331.825 637.758 334.001 Q639.61 336.154 642.758 336.154 Q645.906 336.154 647.735 334.001 Q649.587 331.825 649.587 328.098 Q649.587 324.348 647.735 322.196 Q645.906 320.043 642.758 320.043 M652.041 305.39 L652.041 309.649 Q650.281 308.816 648.476 308.376 Q646.693 307.936 644.934 307.936 Q640.304 307.936 637.851 311.061 Q635.42 314.186 635.073 320.506 Q636.439 318.492 638.499 317.427 Q640.559 316.339 643.036 316.339 Q648.244 316.339 651.254 319.51 Q654.286 322.659 654.286 328.098 Q654.286 333.422 651.138 336.64 Q647.99 339.858 642.758 339.858 Q636.763 339.858 633.592 335.274 Q630.42 330.668 630.42 321.941 Q630.42 313.747 634.309 308.886 Q638.198 304.001 644.749 304.001 Q646.508 304.001 648.291 304.349 Q650.096 304.696 652.041 305.39 Z" fill="#000000" fill-rule="nonzero" fill-opacity="1" /><path clip-path="url(#clip360)" d="M672.341 307.705 Q668.73 307.705 666.902 311.27 Q665.096 314.811 665.096 321.941 Q665.096 329.047 666.902 332.612 Q668.73 336.154 672.341 336.154 Q675.976 336.154 677.781 332.612 Q679.61 329.047 679.61 321.941 Q679.61 314.811 677.781 311.27 Q675.976 307.705 672.341 307.705 M672.341 304.001 Q678.152 304.001 681.207 308.608 Q684.286 313.191 684.286 321.941 Q684.286 330.668 681.207 335.274 Q678.152 339.858 672.341 339.858 Q666.531 339.858 663.453 335.274 Q660.397 330.668 660.397 321.941 Q660.397 313.191 663.453 308.608 Q666.531 304.001 672.341 304.001 Z" fill="#000000" fill-rule="nonzero" fill-opacity="1" /><path clip-path="url(#clip360)" d="M702.503 307.705 Q698.892 307.705 697.063 311.27 Q695.258 314.811 695.258 321.941 Q695.258 329.047 697.063 332.612 Q698.892 336.154 702.503 336.154 Q706.137 336.154 707.943 332.612 Q709.772 329.047 709.772 321.941 Q709.772 314.811 707.943 311.27 Q706.137 307.705 702.503 307.705 M702.503 304.001 Q708.313 304.001 711.369 308.608 Q714.448 313.191 714.448 321.941 Q714.448 330.668 711.369 335.274 Q708.313 339.858 702.503 339.858 Q696.693 339.858 693.614 335.274 Q690.559 330.668 690.559 321.941 Q690.559 313.191 693.614 308.608 Q696.693 304.001 702.503 304.001 Z" fill="#000000" fill-rule="nonzero" fill-opacity="1" /><path clip-path="url(#clip360)" d="M753.66 314.024 L753.66 318.052 Q751.855 317.126 749.91 316.663 Q747.966 316.2 745.883 316.2 Q742.711 316.2 741.114 317.173 Q739.54 318.145 739.54 320.089 Q739.54 321.571 740.674 322.427 Q741.809 323.26 745.234 324.024 L746.693 324.348 Q751.23 325.321 753.128 327.103 Q755.049 328.862 755.049 332.034 Q755.049 335.645 752.179 337.751 Q749.332 339.858 744.332 339.858 Q742.248 339.858 739.98 339.441 Q737.735 339.047 735.235 338.237 L735.235 333.839 Q737.596 335.066 739.887 335.691 Q742.179 336.293 744.424 336.293 Q747.434 336.293 749.054 335.274 Q750.674 334.233 750.674 332.358 Q750.674 330.622 749.494 329.696 Q748.336 328.77 744.378 327.913 L742.897 327.566 Q738.938 326.733 737.179 325.02 Q735.42 323.284 735.42 320.274 Q735.42 316.617 738.012 314.626 Q740.605 312.635 745.373 312.635 Q747.734 312.635 749.818 312.983 Q751.901 313.33 753.66 314.024 Z" fill="#000000" fill-rule="nonzero" fill-opacity="1" /><polyline clip-path="url(#clip360)" style="stroke:#c271d2; stroke-linecap:round; stroke-linejoin:round; stroke-width:4; stroke-opacity:1; fill:none" points="343.018,373.746 483.232,373.746 "/>
<path clip-path="url(#clip360)" d="M522.435 361.073 L512.944 387.137 L531.949 387.137 L522.435 361.073 M506.602 391.026 L519.796 356.466 L525.097 356.466 L538.268 391.026 L506.602 391.026 Z" fill="#000000" fill-rule="nonzero" fill-opacity="1" /><path clip-path="url(#clip360)" d="M547.342 357.739 L547.342 365.1 L556.115 365.1 L556.115 368.411 L547.342 368.411 L547.342 382.485 Q547.342 385.656 548.199 386.559 Q549.078 387.461 551.74 387.461 L556.115 387.461 L556.115 391.026 L551.74 391.026 Q546.81 391.026 544.935 389.198 Q543.06 387.346 543.06 382.485 L543.06 368.411 L539.935 368.411 L539.935 365.1 L543.06 365.1 L543.06 357.739 L547.342 357.739 Z" fill="#000000" fill-rule="nonzero" fill-opacity="1" /><path clip-path="url(#clip360)" d="M577.342 369.499 L607.018 369.499 L607.018 373.387 L577.342 373.387 L577.342 369.499 M577.342 378.943 L607.018 378.943 L607.018 382.878 L577.342 382.878 L577.342 378.943 Z" fill="#000000" fill-rule="nonzero" fill-opacity="1" /><path clip-path="url(#clip360)" d="M632.99 387.091 L640.629 387.091 L640.629 360.726 L632.318 362.392 L632.318 358.133 L640.582 356.466 L645.258 356.466 L645.258 387.091 L652.897 387.091 L652.897 391.026 L632.99 391.026 L632.99 387.091 Z" fill="#000000" fill-rule="nonzero" fill-opacity="1" /><path clip-path="url(#clip360)" d="M672.341 374.614 Q669.008 374.614 667.087 376.397 Q665.189 378.179 665.189 381.304 Q665.189 384.429 667.087 386.211 Q669.008 387.994 672.341 387.994 Q675.675 387.994 677.596 386.211 Q679.517 384.406 679.517 381.304 Q679.517 378.179 677.596 376.397 Q675.698 374.614 672.341 374.614 M667.665 372.624 Q664.656 371.883 662.966 369.823 Q661.3 367.763 661.3 364.8 Q661.3 360.656 664.24 358.249 Q667.202 355.841 672.341 355.841 Q677.503 355.841 680.443 358.249 Q683.383 360.656 683.383 364.8 Q683.383 367.763 681.693 369.823 Q680.027 371.883 677.04 372.624 Q680.42 373.411 682.295 375.702 Q684.193 377.994 684.193 381.304 Q684.193 386.327 681.114 389.012 Q678.059 391.698 672.341 391.698 Q666.624 391.698 663.545 389.012 Q660.49 386.327 660.49 381.304 Q660.49 377.994 662.388 375.702 Q664.286 373.411 667.665 372.624 M665.953 365.239 Q665.953 367.925 667.619 369.429 Q669.309 370.934 672.341 370.934 Q675.351 370.934 677.04 369.429 Q678.753 367.925 678.753 365.239 Q678.753 362.554 677.04 361.05 Q675.351 359.545 672.341 359.545 Q669.309 359.545 667.619 361.05 Q665.953 362.554 665.953 365.239 Z" fill="#000000" fill-rule="nonzero" fill-opacity="1" /><path clip-path="url(#clip360)" d="M702.503 359.545 Q698.892 359.545 697.063 363.11 Q695.258 366.651 695.258 373.781 Q695.258 380.887 697.063 384.452 Q698.892 387.994 702.503 387.994 Q706.137 387.994 707.943 384.452 Q709.772 380.887 709.772 373.781 Q709.772 366.651 707.943 363.11 Q706.137 359.545 702.503 359.545 M702.503 355.841 Q708.313 355.841 711.369 360.448 Q714.448 365.031 714.448 373.781 Q714.448 382.508 711.369 387.114 Q708.313 391.698 702.503 391.698 Q696.693 391.698 693.614 387.114 Q690.559 382.508 690.559 373.781 Q690.559 365.031 693.614 360.448 Q696.693 355.841 702.503 355.841 Z" fill="#000000" fill-rule="nonzero" fill-opacity="1" /><path clip-path="url(#clip360)" d="M732.665 359.545 Q729.054 359.545 727.225 363.11 Q725.42 366.651 725.42 373.781 Q725.42 380.887 727.225 384.452 Q729.054 387.994 732.665 387.994 Q736.299 387.994 738.105 384.452 Q739.934 380.887 739.934 373.781 Q739.934 366.651 738.105 363.11 Q736.299 359.545 732.665 359.545 M732.665 355.841 Q738.475 355.841 741.531 360.448 Q744.609 365.031 744.609 373.781 Q744.609 382.508 741.531 387.114 Q738.475 391.698 732.665 391.698 Q726.855 391.698 723.776 387.114 Q720.721 382.508 720.721 373.781 Q720.721 365.031 723.776 360.448 Q726.855 355.841 732.665 355.841 Z" fill="#000000" fill-rule="nonzero" fill-opacity="1" /><path clip-path="url(#clip360)" d="M783.822 365.864 L783.822 369.892 Q782.017 368.966 780.072 368.503 Q778.128 368.04 776.045 368.04 Q772.873 368.04 771.276 369.013 Q769.702 369.985 769.702 371.929 Q769.702 373.411 770.836 374.267 Q771.97 375.1 775.396 375.864 L776.855 376.188 Q781.392 377.161 783.29 378.943 Q785.211 380.702 785.211 383.874 Q785.211 387.485 782.341 389.591 Q779.494 391.698 774.494 391.698 Q772.41 391.698 770.142 391.281 Q767.896 390.887 765.396 390.077 L765.396 385.679 Q767.758 386.906 770.049 387.531 Q772.341 388.133 774.586 388.133 Q777.595 388.133 779.216 387.114 Q780.836 386.073 780.836 384.198 Q780.836 382.462 779.656 381.536 Q778.498 380.61 774.54 379.753 L773.058 379.406 Q769.1 378.573 767.341 376.86 Q765.582 375.124 765.582 372.114 Q765.582 368.457 768.174 366.466 Q770.767 364.475 775.535 364.475 Q777.896 364.475 779.98 364.823 Q782.063 365.17 783.822 365.864 Z" fill="#000000" fill-rule="nonzero" fill-opacity="1" /><polyline clip-path="url(#clip360)" style="stroke:#ac8d18; stroke-linecap:round; stroke-linejoin:round; stroke-width:4; stroke-opacity:1; fill:none" points="343.018,425.586 483.232,425.586 "/>
<path clip-path="url(#clip360)" d="M522.435 412.913 L512.944 438.977 L531.949 438.977 L522.435 412.913 M506.602 442.866 L519.796 408.306 L525.097 408.306 L538.268 442.866 L506.602 442.866 Z" fill="#000000" fill-rule="nonzero" fill-opacity="1" /><path clip-path="url(#clip360)" d="M547.342 409.579 L547.342 416.94 L556.115 416.94 L556.115 420.251 L547.342 420.251 L547.342 434.325 Q547.342 437.496 548.199 438.399 Q549.078 439.301 551.74 439.301 L556.115 439.301 L556.115 442.866 L551.74 442.866 Q546.81 442.866 544.935 441.038 Q543.06 439.186 543.06 434.325 L543.06 420.251 L539.935 420.251 L539.935 416.94 L543.06 416.94 L543.06 409.579 L547.342 409.579 Z" fill="#000000" fill-rule="nonzero" fill-opacity="1" /><path clip-path="url(#clip360)" d="M577.342 421.339 L607.018 421.339 L607.018 425.227 L577.342 425.227 L577.342 421.339 M577.342 430.783 L607.018 430.783 L607.018 434.718 L577.342 434.718 L577.342 430.783 Z" fill="#000000" fill-rule="nonzero" fill-opacity="1" /><path clip-path="url(#clip360)" d="M632.99 438.931 L640.629 438.931 L640.629 412.566 L632.318 414.232 L632.318 409.973 L640.582 408.306 L645.258 408.306 L645.258 438.931 L652.897 438.931 L652.897 442.866 L632.99 442.866 L632.99 438.931 Z" fill="#000000" fill-rule="nonzero" fill-opacity="1" /><path clip-path="url(#clip360)" d="M698.36 427.218 L698.36 442.866 L694.101 442.866 L694.101 427.357 Q694.101 423.677 692.665 421.848 Q691.23 420.019 688.36 420.019 Q684.911 420.019 682.92 422.218 Q680.929 424.417 680.929 428.214 L680.929 442.866 L676.647 442.866 L676.647 406.848 L680.929 406.848 L680.929 420.968 Q682.457 418.63 684.517 417.473 Q686.601 416.315 689.309 416.315 Q693.776 416.315 696.068 419.093 Q698.36 421.848 698.36 427.218 Z" fill="#000000" fill-rule="nonzero" fill-opacity="1" /></svg>
