<?xml version="1.0" encoding="utf-8"?>
<svg xmlns="http://www.w3.org/2000/svg" xmlns:xlink="http://www.w3.org/1999/xlink" width="600" height="400" viewBox="0 0 2400 1600">
<defs>
  <clipPath id="clip390">
    <rect x="0" y="0" width="2400" height="1600"/>
  </clipPath>
</defs>
<path clip-path="url(#clip390)" d="M0 1600 L2400 1600 L2400 0 L0 0  Z" fill="#ffffff" fill-rule="evenodd" fill-opacity="1"/>
<defs>
  <clipPath id="clip391">
    <rect x="221" y="123" width="2132" height="1288"/>
  </clipPath>
</defs>
<path clip-path="url(#clip390)" d="M221.637 1410.9 L2352.76 1410.9 L2352.76 123.472 L221.637 123.472  Z" fill="#ffffff" fill-rule="evenodd" fill-opacity="1"/>
<polyline clip-path="url(#clip391)" style="stroke:#000000; stroke-linecap:round; stroke-linejoin:round; stroke-width:2; stroke-opacity:0.1; fill:none" points="952.115,1410.9 952.115,123.472 "/>
<polyline clip-path="url(#clip391)" style="stroke:#000000; stroke-linecap:round; stroke-linejoin:round; stroke-width:2; stroke-opacity:0.1; fill:none" points="2292.44,1410.9 2292.44,123.472 "/>
<polyline clip-path="url(#clip391)" style="stroke:#000000; stroke-linecap:round; stroke-linejoin:round; stroke-width:2; stroke-opacity:0.1; fill:none" points="221.637,1010.39 2352.76,1010.39 "/>
<polyline clip-path="url(#clip391)" style="stroke:#000000; stroke-linecap:round; stroke-linejoin:round; stroke-width:2; stroke-opacity:0.1; fill:none" points="221.637,563.45 2352.76,563.45 "/>
<polyline clip-path="url(#clip390)" style="stroke:#000000; stroke-linecap:round; stroke-linejoin:round; stroke-width:4; stroke-opacity:1; fill:none" points="221.637,1410.9 2352.76,1410.9 "/>
<polyline clip-path="url(#clip390)" style="stroke:#000000; stroke-linecap:round; stroke-linejoin:round; stroke-width:4; stroke-opacity:1; fill:none" points="952.115,1410.9 952.115,1392 "/>
<polyline clip-path="url(#clip390)" style="stroke:#000000; stroke-linecap:round; stroke-linejoin:round; stroke-width:4; stroke-opacity:1; fill:none" points="2292.44,1410.9 2292.44,1392 "/>
<path clip-path="url(#clip390)" d="M902.381 1485.02 L910.02 1485.02 L910.02 1458.66 L901.709 1460.32 L901.709 1456.06 L909.973 1454.4 L914.649 1454.4 L914.649 1485.02 L922.288 1485.02 L922.288 1488.96 L902.381 1488.96 L902.381 1485.02 Z" fill="#000000" fill-rule="nonzero" fill-opacity="1" /><path clip-path="url(#clip390)" d="M941.732 1457.48 Q938.121 1457.48 936.293 1461.04 Q934.487 1464.58 934.487 1471.71 Q934.487 1478.82 936.293 1482.38 Q938.121 1485.92 941.732 1485.92 Q945.367 1485.92 947.172 1482.38 Q949.001 1478.82 949.001 1471.71 Q949.001 1464.58 947.172 1461.04 Q945.367 1457.48 941.732 1457.48 M941.732 1453.77 Q947.542 1453.77 950.598 1458.38 Q953.677 1462.96 953.677 1471.71 Q953.677 1480.44 950.598 1485.04 Q947.542 1489.63 941.732 1489.63 Q935.922 1489.63 932.843 1485.04 Q929.788 1480.44 929.788 1471.71 Q929.788 1462.96 932.843 1458.38 Q935.922 1453.77 941.732 1453.77 Z" fill="#000000" fill-rule="nonzero" fill-opacity="1" /><path clip-path="url(#clip390)" d="M953.677 1447.87 L977.788 1447.87 L977.788 1451.07 L953.677 1451.07 L953.677 1447.87 Z" fill="#000000" fill-rule="nonzero" fill-opacity="1" /><path clip-path="url(#clip390)" d="M989.261 1458.35 L1002.52 1458.35 L1002.52 1461.55 L984.691 1461.55 L984.691 1458.35 Q986.854 1456.11 990.578 1452.35 Q994.32 1448.57 995.279 1447.48 Q997.104 1445.43 997.819 1444.02 Q998.552 1442.59 998.552 1441.22 Q998.552 1438.98 996.972 1437.57 Q995.411 1436.16 992.891 1436.16 Q991.104 1436.16 989.111 1436.78 Q987.136 1437.4 984.879 1438.66 L984.879 1434.82 Q987.173 1433.9 989.167 1433.43 Q991.161 1432.96 992.816 1432.96 Q997.179 1432.96 999.775 1435.14 Q1002.37 1437.32 1002.37 1440.97 Q1002.37 1442.7 1001.71 1444.26 Q1001.07 1445.8 999.361 1447.91 Q998.891 1448.46 996.37 1451.07 Q993.85 1453.67 989.261 1458.35 Z" fill="#000000" fill-rule="nonzero" fill-opacity="1" /><path clip-path="url(#clip390)" d="M2257.42 1485.02 L2265.06 1485.02 L2265.06 1458.66 L2256.75 1460.32 L2256.75 1456.06 L2265.02 1454.4 L2269.69 1454.4 L2269.69 1485.02 L2277.33 1485.02 L2277.33 1488.96 L2257.42 1488.96 L2257.42 1485.02 Z" fill="#000000" fill-rule="nonzero" fill-opacity="1" /><path clip-path="url(#clip390)" d="M2296.78 1457.48 Q2293.16 1457.48 2291.34 1461.04 Q2289.53 1464.58 2289.53 1471.71 Q2289.53 1478.82 2291.34 1482.38 Q2293.16 1485.92 2296.78 1485.92 Q2300.41 1485.92 2302.22 1482.38 Q2304.04 1478.82 2304.04 1471.71 Q2304.04 1464.58 2302.22 1461.04 Q2300.41 1457.48 2296.78 1457.48 M2296.78 1453.77 Q2302.59 1453.77 2305.64 1458.38 Q2308.72 1462.96 2308.72 1471.71 Q2308.72 1480.44 2305.64 1485.04 Q2302.59 1489.63 2296.78 1489.63 Q2290.97 1489.63 2287.89 1485.04 Q2284.83 1480.44 2284.83 1471.71 Q2284.83 1462.96 2287.89 1458.38 Q2290.97 1453.77 2296.78 1453.77 Z" fill="#000000" fill-rule="nonzero" fill-opacity="1" /><path clip-path="url(#clip390)" d="M2318.42 1435.97 Q2315.49 1435.97 2314.01 1438.86 Q2312.54 1441.74 2312.54 1447.53 Q2312.54 1453.31 2314.01 1456.2 Q2315.49 1459.08 2318.42 1459.08 Q2321.38 1459.08 2322.84 1456.2 Q2324.33 1453.31 2324.33 1447.53 Q2324.33 1441.74 2322.84 1438.86 Q2321.38 1435.97 2318.42 1435.97 M2318.42 1432.96 Q2323.15 1432.96 2325.63 1436.7 Q2328.13 1440.43 2328.13 1447.53 Q2328.13 1454.62 2325.63 1458.37 Q2323.15 1462.09 2318.42 1462.09 Q2313.7 1462.09 2311.2 1458.37 Q2308.72 1454.62 2308.72 1447.53 Q2308.72 1440.43 2311.2 1436.7 Q2313.7 1432.96 2318.42 1432.96 Z" fill="#000000" fill-rule="nonzero" fill-opacity="1" /><path clip-path="url(#clip390)" d="M977.648 1531.95 L977.648 1568.9 L985.414 1568.9 Q995.249 1568.9 999.801 1564.45 Q1004.38 1559.99 1004.38 1550.38 Q1004.38 1540.83 999.801 1536.4 Q995.249 1531.95 985.414 1531.95 L977.648 1531.95 M971.219 1526.67 L984.428 1526.67 Q998.241 1526.67 1004.7 1532.43 Q1011.16 1538.16 1011.16 1550.38 Q1011.16 1562.66 1004.67 1568.42 Q998.178 1574.19 984.428 1574.19 L971.219 1574.19 L971.219 1526.67 Z" fill="#000000" fill-rule="nonzero" fill-opacity="1" /><path clip-path="url(#clip390)" d="M1041.81 1544.01 Q1040.83 1543.44 1039.65 1543.18 Q1038.5 1542.9 1037.1 1542.9 Q1032.14 1542.9 1029.46 1546.14 Q1026.82 1549.36 1026.82 1555.41 L1026.82 1574.19 L1020.93 1574.19 L1020.93 1538.54 L1026.82 1538.54 L1026.82 1544.08 Q1028.67 1540.83 1031.63 1539.27 Q1034.59 1537.68 1038.82 1537.68 Q1039.43 1537.68 1040.16 1537.77 Q1040.89 1537.84 1041.78 1538 L1041.81 1544.01 Z" fill="#000000" fill-rule="nonzero" fill-opacity="1" /><path clip-path="url(#clip390)" d="M1060.34 1542.64 Q1055.63 1542.64 1052.89 1546.34 Q1050.15 1550 1050.15 1556.39 Q1050.15 1562.79 1052.86 1566.48 Q1055.6 1570.14 1060.34 1570.14 Q1065.02 1570.14 1067.75 1566.45 Q1070.49 1562.76 1070.49 1556.39 Q1070.49 1550.06 1067.75 1546.37 Q1065.02 1542.64 1060.34 1542.64 M1060.34 1537.68 Q1067.98 1537.68 1072.34 1542.64 Q1076.7 1547.61 1076.7 1556.39 Q1076.7 1565.15 1072.34 1570.14 Q1067.98 1575.11 1060.34 1575.11 Q1052.67 1575.11 1048.31 1570.14 Q1043.98 1565.15 1043.98 1556.39 Q1043.98 1547.61 1048.31 1542.64 Q1052.67 1537.68 1060.34 1537.68 Z" fill="#000000" fill-rule="nonzero" fill-opacity="1" /><path clip-path="url(#clip390)" d="M1092.07 1568.84 L1092.07 1587.74 L1086.18 1587.74 L1086.18 1538.54 L1092.07 1538.54 L1092.07 1543.95 Q1093.92 1540.77 1096.72 1539.24 Q1099.55 1537.68 1103.47 1537.68 Q1109.96 1537.68 1114 1542.83 Q1118.08 1547.99 1118.08 1556.39 Q1118.08 1564.8 1114 1569.95 Q1109.96 1575.11 1103.47 1575.11 Q1099.55 1575.11 1096.72 1573.58 Q1093.92 1572.02 1092.07 1568.84 M1112 1556.39 Q1112 1549.93 1109.32 1546.27 Q1106.68 1542.58 1102.03 1542.58 Q1097.39 1542.58 1094.71 1546.27 Q1092.07 1549.93 1092.07 1556.39 Q1092.07 1562.85 1094.71 1566.55 Q1097.39 1570.21 1102.03 1570.21 Q1106.68 1570.21 1109.32 1566.55 Q1112 1562.85 1112 1556.39 Z" fill="#000000" fill-rule="nonzero" fill-opacity="1" /><path clip-path="url(#clip390)" d="M1171.96 1543.95 L1171.96 1524.66 L1177.82 1524.66 L1177.82 1574.19 L1171.96 1574.19 L1171.96 1568.84 Q1170.12 1572.02 1167.28 1573.58 Q1164.48 1575.11 1160.53 1575.11 Q1154.07 1575.11 1150 1569.95 Q1145.96 1564.8 1145.96 1556.39 Q1145.96 1547.99 1150 1542.83 Q1154.07 1537.68 1160.53 1537.68 Q1164.48 1537.68 1167.28 1539.24 Q1170.12 1540.77 1171.96 1543.95 M1152 1556.39 Q1152 1562.85 1154.65 1566.55 Q1157.32 1570.21 1161.97 1570.21 Q1166.61 1570.21 1169.29 1566.55 Q1171.96 1562.85 1171.96 1556.39 Q1171.96 1549.93 1169.29 1546.27 Q1166.61 1542.58 1161.97 1542.58 Q1157.32 1542.58 1154.65 1546.27 Q1152 1549.93 1152 1556.39 Z" fill="#000000" fill-rule="nonzero" fill-opacity="1" /><path clip-path="url(#clip390)" d="M1189.88 1538.54 L1195.74 1538.54 L1195.74 1574.19 L1189.88 1574.19 L1189.88 1538.54 M1189.88 1524.66 L1195.74 1524.66 L1195.74 1532.08 L1189.88 1532.08 L1189.88 1524.66 Z" fill="#000000" fill-rule="nonzero" fill-opacity="1" /><path clip-path="url(#clip390)" d="M1224.19 1556.27 Q1217.09 1556.27 1214.36 1557.89 Q1211.62 1559.51 1211.62 1563.43 Q1211.62 1566.55 1213.66 1568.39 Q1215.73 1570.21 1219.26 1570.21 Q1224.13 1570.21 1227.06 1566.77 Q1230.02 1563.3 1230.02 1557.57 L1230.02 1556.27 L1224.19 1556.27 M1235.87 1553.85 L1235.87 1574.19 L1230.02 1574.19 L1230.02 1568.77 Q1228.01 1572.02 1225.02 1573.58 Q1222.03 1575.11 1217.7 1575.11 Q1212.22 1575.11 1208.98 1572.05 Q1205.76 1568.97 1205.76 1563.81 Q1205.76 1557.79 1209.77 1554.74 Q1213.82 1551.68 1221.8 1551.68 L1230.02 1551.68 L1230.02 1551.11 Q1230.02 1547.07 1227.34 1544.87 Q1224.7 1542.64 1219.9 1542.64 Q1216.84 1542.64 1213.94 1543.38 Q1211.05 1544.11 1208.37 1545.57 L1208.37 1540.16 Q1211.59 1538.92 1214.61 1538.31 Q1217.64 1537.68 1220.5 1537.68 Q1228.23 1537.68 1232.05 1541.69 Q1235.87 1545.7 1235.87 1553.85 Z" fill="#000000" fill-rule="nonzero" fill-opacity="1" /><path clip-path="url(#clip390)" d="M1275.69 1545.38 Q1277.89 1541.43 1280.94 1539.56 Q1284 1537.68 1288.14 1537.68 Q1293.71 1537.68 1296.73 1541.59 Q1299.75 1545.48 1299.75 1552.67 L1299.75 1574.19 L1293.86 1574.19 L1293.86 1552.86 Q1293.86 1547.74 1292.05 1545.25 Q1290.24 1542.77 1286.51 1542.77 Q1281.96 1542.77 1279.32 1545.79 Q1276.68 1548.82 1276.68 1554.04 L1276.68 1574.19 L1270.79 1574.19 L1270.79 1552.86 Q1270.79 1547.7 1268.97 1545.25 Q1267.16 1542.77 1263.37 1542.77 Q1258.89 1542.77 1256.24 1545.83 Q1253.6 1548.85 1253.6 1554.04 L1253.6 1574.19 L1247.71 1574.19 L1247.71 1538.54 L1253.6 1538.54 L1253.6 1544.08 Q1255.61 1540.8 1258.41 1539.24 Q1261.21 1537.68 1265.06 1537.68 Q1268.94 1537.68 1271.65 1539.65 Q1274.39 1541.62 1275.69 1545.38 Z" fill="#000000" fill-rule="nonzero" fill-opacity="1" /><path clip-path="url(#clip390)" d="M1341.93 1554.9 L1341.93 1557.76 L1315 1557.76 Q1315.38 1563.81 1318.63 1566.99 Q1321.91 1570.14 1327.73 1570.14 Q1331.1 1570.14 1334.25 1569.32 Q1337.44 1568.49 1340.56 1566.83 L1340.56 1572.37 Q1337.41 1573.71 1334.1 1574.41 Q1330.79 1575.11 1327.38 1575.11 Q1318.85 1575.11 1313.85 1570.14 Q1308.89 1565.18 1308.89 1556.71 Q1308.89 1547.96 1313.6 1542.83 Q1318.34 1537.68 1326.36 1537.68 Q1333.55 1537.68 1337.72 1542.33 Q1341.93 1546.94 1341.93 1554.9 M1336.07 1553.18 Q1336.01 1548.37 1333.36 1545.51 Q1330.75 1542.64 1326.43 1542.64 Q1321.52 1542.64 1318.56 1545.41 Q1315.64 1548.18 1315.19 1553.21 L1336.07 1553.18 Z" fill="#000000" fill-rule="nonzero" fill-opacity="1" /><path clip-path="url(#clip390)" d="M1357.33 1528.42 L1357.33 1538.54 L1369.39 1538.54 L1369.39 1543.09 L1357.33 1543.09 L1357.33 1562.44 Q1357.33 1566.8 1358.51 1568.04 Q1359.72 1569.28 1363.38 1569.28 L1369.39 1569.28 L1369.39 1574.19 L1363.38 1574.19 Q1356.6 1574.19 1354.02 1571.67 Q1351.44 1569.12 1351.44 1562.44 L1351.44 1543.09 L1347.15 1543.09 L1347.15 1538.54 L1351.44 1538.54 L1351.44 1528.42 L1357.33 1528.42 Z" fill="#000000" fill-rule="nonzero" fill-opacity="1" /><path clip-path="url(#clip390)" d="M1407.59 1554.9 L1407.59 1557.76 L1380.66 1557.76 Q1381.04 1563.81 1384.29 1566.99 Q1387.57 1570.14 1393.39 1570.14 Q1396.77 1570.14 1399.92 1569.32 Q1403.1 1568.49 1406.22 1566.83 L1406.22 1572.37 Q1403.07 1573.71 1399.76 1574.41 Q1396.45 1575.11 1393.04 1575.11 Q1384.51 1575.11 1379.52 1570.14 Q1374.55 1565.18 1374.55 1556.71 Q1374.55 1547.96 1379.26 1542.83 Q1384 1537.68 1392.02 1537.68 Q1399.22 1537.68 1403.39 1542.33 Q1407.59 1546.94 1407.59 1554.9 M1401.73 1553.18 Q1401.67 1548.37 1399.03 1545.51 Q1396.42 1542.64 1392.09 1542.64 Q1387.19 1542.64 1384.23 1545.41 Q1381.3 1548.18 1380.85 1553.21 L1401.73 1553.18 Z" fill="#000000" fill-rule="nonzero" fill-opacity="1" /><path clip-path="url(#clip390)" d="M1437.86 1544.01 Q1436.87 1543.44 1435.69 1543.18 Q1434.55 1542.9 1433.15 1542.9 Q1428.18 1542.9 1425.51 1546.14 Q1422.87 1549.36 1422.87 1555.41 L1422.87 1574.19 L1416.98 1574.19 L1416.98 1538.54 L1422.87 1538.54 L1422.87 1544.08 Q1424.71 1540.83 1427.67 1539.27 Q1430.63 1537.68 1434.86 1537.68 Q1435.47 1537.68 1436.2 1537.77 Q1436.93 1537.84 1437.83 1538 L1437.86 1544.01 Z" fill="#000000" fill-rule="nonzero" fill-opacity="1" /><path clip-path="url(#clip390)" d="M1478.79 1524.72 Q1474.52 1532.04 1472.45 1539.21 Q1470.39 1546.37 1470.39 1553.72 Q1470.39 1561.07 1472.45 1568.3 Q1474.56 1575.49 1478.79 1582.78 L1473.7 1582.78 Q1468.92 1575.3 1466.53 1568.07 Q1464.18 1560.85 1464.18 1553.72 Q1464.18 1546.62 1466.53 1539.43 Q1468.89 1532.24 1473.7 1524.72 L1478.79 1524.72 Z" fill="#000000" fill-rule="nonzero" fill-opacity="1" /><path clip-path="url(#clip390)" d="M1515.8 1539.91 L1515.8 1545.38 Q1513.32 1544.01 1510.81 1543.34 Q1508.33 1542.64 1505.78 1542.64 Q1500.08 1542.64 1496.93 1546.27 Q1493.78 1549.87 1493.78 1556.39 Q1493.78 1562.92 1496.93 1566.55 Q1500.08 1570.14 1505.78 1570.14 Q1508.33 1570.14 1510.81 1569.47 Q1513.32 1568.77 1515.8 1567.41 L1515.8 1572.82 Q1513.35 1573.96 1510.71 1574.54 Q1508.1 1575.11 1505.14 1575.11 Q1497.09 1575.11 1492.35 1570.05 Q1487.6 1564.99 1487.6 1556.39 Q1487.6 1547.67 1492.38 1542.68 Q1497.19 1537.68 1505.52 1537.68 Q1508.23 1537.68 1510.81 1538.25 Q1513.39 1538.79 1515.8 1539.91 Z" fill="#000000" fill-rule="nonzero" fill-opacity="1" /><path clip-path="url(#clip390)" d="M1553.74 1545.38 Q1555.94 1541.43 1559 1539.56 Q1562.05 1537.68 1566.19 1537.68 Q1571.76 1537.68 1574.78 1541.59 Q1577.81 1545.48 1577.81 1552.67 L1577.81 1574.19 L1571.92 1574.19 L1571.92 1552.86 Q1571.92 1547.74 1570.1 1545.25 Q1568.29 1542.77 1564.57 1542.77 Q1560.01 1542.77 1557.37 1545.79 Q1554.73 1548.82 1554.73 1554.04 L1554.73 1574.19 L1548.84 1574.19 L1548.84 1552.86 Q1548.84 1547.7 1547.03 1545.25 Q1545.21 1542.77 1541.43 1542.77 Q1536.94 1542.77 1534.3 1545.83 Q1531.66 1548.85 1531.66 1554.04 L1531.66 1574.19 L1525.77 1574.19 L1525.77 1538.54 L1531.66 1538.54 L1531.66 1544.08 Q1533.66 1540.8 1536.46 1539.24 Q1539.26 1537.68 1543.11 1537.68 Q1547 1537.68 1549.7 1539.65 Q1552.44 1541.62 1553.74 1545.38 Z" fill="#000000" fill-rule="nonzero" fill-opacity="1" /><path clip-path="url(#clip390)" d="M1588.56 1524.72 L1593.66 1524.72 Q1598.43 1532.24 1600.79 1539.43 Q1603.17 1546.62 1603.17 1553.72 Q1603.17 1560.85 1600.79 1568.07 Q1598.43 1575.3 1593.66 1582.78 L1588.56 1582.78 Q1592.8 1575.49 1594.87 1568.3 Q1596.97 1561.07 1596.97 1553.72 Q1596.97 1546.37 1594.87 1539.21 Q1592.8 1532.04 1588.56 1524.72 Z" fill="#000000" fill-rule="nonzero" fill-opacity="1" /><polyline clip-path="url(#clip390)" style="stroke:#000000; stroke-linecap:round; stroke-linejoin:round; stroke-width:4; stroke-opacity:1; fill:none" points="221.637,1410.9 221.637,123.472 "/>
<polyline clip-path="url(#clip390)" style="stroke:#000000; stroke-linecap:round; stroke-linejoin:round; stroke-width:4; stroke-opacity:1; fill:none" points="221.637,1010.39 240.535,1010.39 "/>
<polyline clip-path="url(#clip390)" style="stroke:#000000; stroke-linecap:round; stroke-linejoin:round; stroke-width:4; stroke-opacity:1; fill:none" points="221.637,563.45 240.535,563.45 "/>
<path clip-path="url(#clip390)" d="M114.931 1030.19 L122.57 1030.19 L122.57 1003.82 L114.26 1005.49 L114.26 1001.23 L122.524 999.562 L127.2 999.562 L127.2 1030.19 L134.839 1030.19 L134.839 1034.12 L114.931 1034.12 L114.931 1030.19 Z" fill="#000000" fill-rule="nonzero" fill-opacity="1" /><path clip-path="url(#clip390)" d="M154.283 1002.64 Q150.672 1002.64 148.843 1006.21 Q147.038 1009.75 147.038 1016.88 Q147.038 1023.98 148.843 1027.55 Q150.672 1031.09 154.283 1031.09 Q157.917 1031.09 159.723 1027.55 Q161.552 1023.98 161.552 1016.88 Q161.552 1009.75 159.723 1006.21 Q157.917 1002.64 154.283 1002.64 M154.283 998.937 Q160.093 998.937 163.149 1003.54 Q166.227 1008.13 166.227 1016.88 Q166.227 1025.6 163.149 1030.21 Q160.093 1034.79 154.283 1034.79 Q148.473 1034.79 145.394 1030.21 Q142.339 1025.6 142.339 1016.88 Q142.339 1008.13 145.394 1003.54 Q148.473 998.937 154.283 998.937 Z" fill="#000000" fill-rule="nonzero" fill-opacity="1" /><path clip-path="url(#clip390)" d="M175.932 981.133 Q172.998 981.133 171.512 984.029 Q170.045 986.907 170.045 992.7 Q170.045 998.474 171.512 1001.37 Q172.998 1004.25 175.932 1004.25 Q178.885 1004.25 180.352 1001.37 Q181.838 998.474 181.838 992.7 Q181.838 986.907 180.352 984.029 Q178.885 981.133 175.932 981.133 M175.932 978.124 Q180.653 978.124 183.136 981.866 Q185.637 985.59 185.637 992.7 Q185.637 999.79 183.136 1003.53 Q180.653 1007.26 175.932 1007.26 Q171.212 1007.26 168.71 1003.53 Q166.227 999.79 166.227 992.7 Q166.227 985.59 168.71 981.866 Q171.212 978.124 175.932 978.124 Z" fill="#000000" fill-rule="nonzero" fill-opacity="1" /><path clip-path="url(#clip390)" d="M115.853 583.242 L123.492 583.242 L123.492 556.877 L115.182 558.543 L115.182 554.284 L123.446 552.617 L128.121 552.617 L128.121 583.242 L135.76 583.242 L135.76 587.177 L115.853 587.177 L115.853 583.242 Z" fill="#000000" fill-rule="nonzero" fill-opacity="1" /><path clip-path="url(#clip390)" d="M155.205 555.696 Q151.594 555.696 149.765 559.261 Q147.959 562.802 147.959 569.932 Q147.959 577.038 149.765 580.603 Q151.594 584.145 155.205 584.145 Q158.839 584.145 160.644 580.603 Q162.473 577.038 162.473 569.932 Q162.473 562.802 160.644 559.261 Q158.839 555.696 155.205 555.696 M155.205 551.992 Q161.015 551.992 164.07 556.599 Q167.149 561.182 167.149 569.932 Q167.149 578.659 164.07 583.265 Q161.015 587.849 155.205 587.849 Q149.395 587.849 146.316 583.265 Q143.26 578.659 143.26 569.932 Q143.26 561.182 146.316 556.599 Q149.395 551.992 155.205 551.992 Z" fill="#000000" fill-rule="nonzero" fill-opacity="1" /><path clip-path="url(#clip390)" d="M179.844 544.627 Q182.571 545.21 184.095 547.053 Q185.637 548.896 185.637 551.604 Q185.637 555.761 182.778 558.037 Q179.92 560.312 174.653 560.312 Q172.885 560.312 171.005 559.955 Q169.143 559.616 167.149 558.921 L167.149 555.253 Q168.729 556.175 170.61 556.645 Q172.49 557.115 174.541 557.115 Q178.114 557.115 179.976 555.704 Q181.857 554.294 181.857 551.604 Q181.857 549.122 180.108 547.73 Q178.377 546.319 175.274 546.319 L172.001 546.319 L172.001 543.197 L175.424 543.197 Q178.227 543.197 179.713 542.088 Q181.198 540.959 181.198 538.853 Q181.198 536.69 179.656 535.542 Q178.133 534.376 175.274 534.376 Q173.713 534.376 171.926 534.715 Q170.139 535.053 167.995 535.768 L167.995 532.383 Q170.158 531.781 172.039 531.48 Q173.939 531.179 175.613 531.179 Q179.938 531.179 182.459 533.154 Q184.979 535.11 184.979 538.458 Q184.979 540.79 183.643 542.407 Q182.308 544.006 179.844 544.627 Z" fill="#000000" fill-rule="nonzero" fill-opacity="1" /><path clip-path="url(#clip390)" d="M64.0042 866.362 L64.0042 873.142 L16.4842 854.999 L16.4842 847.711 L64.0042 829.6 L64.0042 836.284 L22.818 851.371 L64.0042 866.362 Z" fill="#000000" fill-rule="nonzero" fill-opacity="1" /><path clip-path="url(#clip390)" d="M14.5426 788.128 Q21.8632 792.393 29.0246 794.461 Q36.186 796.53 43.5384 796.53 Q50.8908 796.53 58.1159 794.461 Q65.3091 792.361 72.5979 788.128 L72.5979 793.22 Q65.1182 797.994 57.8931 800.382 Q50.668 802.737 43.5384 802.737 Q36.4406 802.737 29.2474 800.382 Q22.0542 798.026 14.5426 793.22 L14.5426 788.128 Z" fill="#000000" fill-rule="nonzero" fill-opacity="1" /><path clip-path="url(#clip390)" d="M42.4881 747.132 L64.0042 747.132 L64.0042 752.989 L42.679 752.989 Q37.6183 752.989 35.1038 754.962 Q32.5894 756.936 32.5894 760.882 Q32.5894 765.625 35.6131 768.362 Q38.6368 771.099 43.8567 771.099 L64.0042 771.099 L64.0042 776.988 L14.479 776.988 L14.479 771.099 L33.8944 771.099 Q30.6797 768.999 29.0883 766.166 Q27.4968 763.301 27.4968 759.577 Q27.4968 753.434 31.3163 750.283 Q35.1038 747.132 42.4881 747.132 Z" fill="#000000" fill-rule="nonzero" fill-opacity="1" /><path clip-path="url(#clip390)" d="M29.7885 737.234 L29.7885 711.548 L32.8122 711.548 L32.8122 737.234 L29.7885 737.234 Z" fill="#000000" fill-rule="nonzero" fill-opacity="1" /><path clip-path="url(#clip390)" d="M39.2416 702.222 L39.2416 695.729 L19.7943 695.729 L21.0993 702.827 L17.4072 702.827 L16.1659 695.507 L16.1659 691.146 L39.2416 691.146 L39.2416 684.621 L42.7427 684.621 L42.7427 702.222 L39.2416 702.222 Z" fill="#000000" fill-rule="nonzero" fill-opacity="1" /><path clip-path="url(#clip390)" d="M14.5426 675.836 L14.5426 670.744 Q22.0542 665.97 29.2474 663.614 Q36.4406 661.227 43.5384 661.227 Q50.668 661.227 57.8931 663.614 Q65.1182 665.97 72.5979 670.744 L72.5979 675.836 Q65.3091 671.603 58.1159 669.534 Q50.8908 667.434 43.5384 667.434 Q36.186 667.434 29.0246 669.534 Q21.8632 671.603 14.5426 675.836 Z" fill="#000000" fill-rule="nonzero" fill-opacity="1" /><path clip-path="url(#clip390)" d="M509.504 63.9476 L509.504 47.7034 L496.136 47.7034 L496.136 40.9789 L517.606 40.9789 L517.606 66.9452 Q512.866 70.3075 507.154 72.0494 Q501.443 73.7508 494.961 73.7508 Q480.783 73.7508 472.762 65.4869 Q464.782 57.1826 464.782 42.3968 Q464.782 27.5705 472.762 19.3066 Q480.783 11.0023 494.961 11.0023 Q500.875 11.0023 506.182 12.4606 Q511.529 13.9189 516.026 16.7545 L516.026 25.464 Q511.489 21.6156 506.385 19.6712 Q501.281 17.7268 495.65 17.7268 Q484.55 17.7268 478.96 23.9246 Q473.41 30.1225 473.41 42.3968 Q473.41 54.6305 478.96 60.8284 Q484.55 67.0263 495.65 67.0263 Q499.984 67.0263 503.387 66.2971 Q506.79 65.5274 509.504 63.9476 Z" fill="#000000" fill-rule="nonzero" fill-opacity="1" /><path clip-path="url(#clip390)" d="M552.849 49.7694 Q543.815 49.7694 540.331 51.8354 Q536.848 53.9013 536.848 58.8839 Q536.848 62.8538 539.44 65.2034 Q542.073 67.5124 546.57 67.5124 Q552.768 67.5124 556.494 63.1374 Q560.262 58.7219 560.262 51.4303 L560.262 49.7694 L552.849 49.7694 M567.715 46.6907 L567.715 72.576 L560.262 72.576 L560.262 65.6895 Q557.71 69.8214 553.902 71.8063 Q550.094 73.7508 544.585 73.7508 Q537.617 73.7508 533.485 69.8619 Q529.394 65.9325 529.394 59.3701 Q529.394 51.7138 534.498 47.825 Q539.643 43.9361 549.81 43.9361 L560.262 43.9361 L560.262 43.2069 Q560.262 38.0623 556.859 35.2672 Q553.497 32.4315 547.38 32.4315 Q543.491 32.4315 539.805 33.3632 Q536.118 34.295 532.716 36.1584 L532.716 29.2718 Q536.807 27.692 540.655 26.9223 Q544.504 26.1121 548.15 26.1121 Q557.993 26.1121 562.854 31.2163 Q567.715 36.3204 567.715 46.6907 Z" fill="#000000" fill-rule="nonzero" fill-opacity="1" /><path clip-path="url(#clip390)" d="M611.992 28.5427 L611.992 35.5912 Q608.832 33.9709 605.429 33.1607 Q602.027 32.3505 598.381 32.3505 Q592.831 32.3505 590.036 34.0519 Q587.281 35.7533 587.281 39.156 Q587.281 41.7486 589.266 43.2475 Q591.251 44.7058 597.246 46.0426 L599.799 46.6097 Q607.738 48.3111 611.06 51.4303 Q614.422 54.509 614.422 60.0587 Q614.422 66.3781 609.399 70.0644 Q604.417 73.7508 595.667 73.7508 Q592.021 73.7508 588.051 73.0216 Q584.122 72.3329 579.747 70.9151 L579.747 63.2184 Q583.879 65.3654 587.889 66.4591 Q591.899 67.5124 595.829 67.5124 Q601.095 67.5124 603.93 65.73 Q606.766 63.9071 606.766 60.6258 Q606.766 57.5877 604.7 55.9673 Q602.675 54.3469 595.748 52.8481 L593.155 52.2405 Q586.228 50.7821 583.149 47.7845 Q580.071 44.7463 580.071 39.4801 Q580.071 33.0797 584.608 29.5959 Q589.145 26.1121 597.49 26.1121 Q601.621 26.1121 605.267 26.7198 Q608.913 27.3274 611.992 28.5427 Z" fill="#000000" fill-rule="nonzero" fill-opacity="1" /><path clip-path="url(#clip390)" d="M689.243 14.0809 L689.243 22.0612 Q684.584 19.8332 680.452 18.7395 Q676.32 17.6457 672.472 17.6457 Q665.788 17.6457 662.142 20.2383 Q658.537 22.8309 658.537 27.611 Q658.537 31.6214 660.927 33.6873 Q663.357 35.7128 670.082 36.9686 L675.024 37.9813 Q684.179 39.7232 688.513 44.1387 Q692.888 48.5136 692.888 55.8863 Q692.888 64.6767 686.974 69.2137 Q681.1 73.7508 669.717 73.7508 Q665.423 73.7508 660.562 72.7785 Q655.742 71.8063 650.556 69.9024 L650.556 61.4765 Q655.539 64.2716 660.319 65.6895 Q665.099 67.1073 669.717 67.1073 Q676.725 67.1073 680.533 64.3527 Q684.341 61.598 684.341 56.4939 Q684.341 52.0379 681.586 49.5264 Q678.872 47.0148 672.634 45.759 L667.651 44.7868 Q658.496 42.9639 654.405 39.075 Q650.313 35.1862 650.313 28.2591 Q650.313 20.2383 655.944 15.6203 Q661.615 11.0023 671.54 11.0023 Q675.794 11.0023 680.209 11.7719 Q684.624 12.5416 689.243 14.0809 Z" fill="#000000" fill-rule="nonzero" fill-opacity="1" /><path clip-path="url(#clip390)" d="M737.975 28.9478 L737.975 35.9153 Q734.815 34.1734 731.615 33.3227 Q728.455 32.4315 725.215 32.4315 Q717.963 32.4315 713.953 37.0496 Q709.943 41.6271 709.943 49.9314 Q709.943 58.2358 713.953 62.8538 Q717.963 67.4314 725.215 67.4314 Q728.455 67.4314 731.615 66.5807 Q734.815 65.6895 737.975 63.9476 L737.975 70.8341 Q734.856 72.2924 731.493 73.0216 Q728.172 73.7508 724.404 73.7508 Q714.156 73.7508 708.12 67.3098 Q702.084 60.8689 702.084 49.9314 Q702.084 38.832 708.16 32.472 Q714.277 26.1121 724.89 26.1121 Q728.334 26.1121 731.615 26.8413 Q734.896 27.5299 737.975 28.9478 Z" fill="#000000" fill-rule="nonzero" fill-opacity="1" /><path clip-path="url(#clip390)" d="M771.557 49.7694 Q762.523 49.7694 759.04 51.8354 Q755.556 53.9013 755.556 58.8839 Q755.556 62.8538 758.148 65.2034 Q760.781 67.5124 765.278 67.5124 Q771.476 67.5124 775.203 63.1374 Q778.97 58.7219 778.97 51.4303 L778.97 49.7694 L771.557 49.7694 M786.424 46.6907 L786.424 72.576 L778.97 72.576 L778.97 65.6895 Q776.418 69.8214 772.61 71.8063 Q768.802 73.7508 763.293 73.7508 Q756.325 73.7508 752.194 69.8619 Q748.102 65.9325 748.102 59.3701 Q748.102 51.7138 753.206 47.825 Q758.351 43.9361 768.519 43.9361 L778.97 43.9361 L778.97 43.2069 Q778.97 38.0623 775.567 35.2672 Q772.205 32.4315 766.088 32.4315 Q762.199 32.4315 758.513 33.3632 Q754.827 34.295 751.424 36.1584 L751.424 29.2718 Q755.515 27.692 759.364 26.9223 Q763.212 26.1121 766.858 26.1121 Q776.702 26.1121 781.563 31.2163 Q786.424 36.3204 786.424 46.6907 Z" fill="#000000" fill-rule="nonzero" fill-opacity="1" /><path clip-path="url(#clip390)" d="M796.429 27.2059 L804.329 27.2059 L818.507 65.2844 L832.685 27.2059 L840.584 27.2059 L823.571 72.576 L813.443 72.576 L796.429 27.2059 Z" fill="#000000" fill-rule="nonzero" fill-opacity="1" /><path clip-path="url(#clip390)" d="M889.681 48.0275 L889.681 51.6733 L855.411 51.6733 Q855.897 59.3701 860.029 63.421 Q864.201 67.4314 871.614 67.4314 Q875.908 67.4314 879.919 66.3781 Q883.969 65.3249 887.939 63.2184 L887.939 70.267 Q883.929 71.9684 879.716 72.8596 Q875.503 73.7508 871.169 73.7508 Q860.312 73.7508 853.952 67.4314 Q847.633 61.1119 847.633 50.3365 Q847.633 39.1965 853.628 32.6746 Q859.664 26.1121 869.872 26.1121 Q879.027 26.1121 884.334 32.0264 Q889.681 37.9003 889.681 48.0275 M882.228 45.84 Q882.147 39.7232 878.784 36.0774 Q875.463 32.4315 869.953 32.4315 Q863.715 32.4315 859.948 35.9558 Q856.221 39.4801 855.654 45.8805 L882.228 45.84 Z" fill="#000000" fill-rule="nonzero" fill-opacity="1" /><path clip-path="url(#clip390)" d="M939.629 45.1919 L939.629 72.576 L932.175 72.576 L932.175 45.4349 Q932.175 38.994 929.664 35.7938 Q927.152 32.5936 922.129 32.5936 Q916.093 32.5936 912.609 36.4419 Q909.126 40.2903 909.126 46.9338 L909.126 72.576 L901.631 72.576 L901.631 27.2059 L909.126 27.2059 L909.126 34.2544 Q911.799 30.163 915.405 28.1376 Q919.05 26.1121 923.79 26.1121 Q931.608 26.1121 935.619 30.9732 Q939.629 35.7938 939.629 45.1919 Z" fill="#000000" fill-rule="nonzero" fill-opacity="1" /><path clip-path="url(#clip390)" d="M984.351 49.3643 Q984.351 41.2625 980.989 36.8065 Q977.667 32.3505 971.631 32.3505 Q965.636 32.3505 962.273 36.8065 Q958.952 41.2625 958.952 49.3643 Q958.952 57.4256 962.273 61.8816 Q965.636 66.3376 971.631 66.3376 Q977.667 66.3376 980.989 61.8816 Q984.351 57.4256 984.351 49.3643 M991.805 66.9452 Q991.805 78.5308 986.66 84.1616 Q981.515 89.8329 970.902 89.8329 Q966.973 89.8329 963.489 89.2252 Q960.005 88.6581 956.724 87.4428 L956.724 80.1917 Q960.005 81.9741 963.205 82.8248 Q966.405 83.6755 969.727 83.6755 Q977.059 83.6755 980.705 79.8271 Q984.351 76.0193 984.351 68.282 L984.351 64.5957 Q982.042 68.6061 978.437 70.5911 Q974.831 72.576 969.808 72.576 Q961.463 72.576 956.359 66.2161 Q951.255 59.8562 951.255 49.3643 Q951.255 38.832 956.359 32.472 Q961.463 26.1121 969.808 26.1121 Q974.831 26.1121 978.437 28.0971 Q982.042 30.082 984.351 34.0924 L984.351 27.2059 L991.805 27.2059 L991.805 66.9452 Z" fill="#000000" fill-rule="nonzero" fill-opacity="1" /><path clip-path="url(#clip390)" d="M1007.16 27.2059 L1014.61 27.2059 L1014.61 72.576 L1007.16 72.576 L1007.16 27.2059 M1007.16 9.54393 L1014.61 9.54393 L1014.61 18.9825 L1007.16 18.9825 L1007.16 9.54393 Z" fill="#000000" fill-rule="nonzero" fill-opacity="1" /><path clip-path="url(#clip390)" d="M1067.92 45.1919 L1067.92 72.576 L1060.47 72.576 L1060.47 45.4349 Q1060.47 38.994 1057.96 35.7938 Q1055.44 32.5936 1050.42 32.5936 Q1044.39 32.5936 1040.9 36.4419 Q1037.42 40.2903 1037.42 46.9338 L1037.42 72.576 L1029.92 72.576 L1029.92 27.2059 L1037.42 27.2059 L1037.42 34.2544 Q1040.09 30.163 1043.7 28.1376 Q1047.34 26.1121 1052.08 26.1121 Q1059.9 26.1121 1063.91 30.9732 Q1067.92 35.7938 1067.92 45.1919 Z" fill="#000000" fill-rule="nonzero" fill-opacity="1" /><path clip-path="url(#clip390)" d="M1112.64 49.3643 Q1112.64 41.2625 1109.28 36.8065 Q1105.96 32.3505 1099.92 32.3505 Q1093.93 32.3505 1090.57 36.8065 Q1087.24 41.2625 1087.24 49.3643 Q1087.24 57.4256 1090.57 61.8816 Q1093.93 66.3376 1099.92 66.3376 Q1105.96 66.3376 1109.28 61.8816 Q1112.64 57.4256 1112.64 49.3643 M1120.1 66.9452 Q1120.1 78.5308 1114.95 84.1616 Q1109.81 89.8329 1099.19 89.8329 Q1095.26 89.8329 1091.78 89.2252 Q1088.3 88.6581 1085.02 87.4428 L1085.02 80.1917 Q1088.3 81.9741 1091.5 82.8248 Q1094.7 83.6755 1098.02 83.6755 Q1105.35 83.6755 1109 79.8271 Q1112.64 76.0193 1112.64 68.282 L1112.64 64.5957 Q1110.33 68.6061 1106.73 70.5911 Q1103.12 72.576 1098.1 72.576 Q1089.76 72.576 1084.65 66.2161 Q1079.55 59.8562 1079.55 49.3643 Q1079.55 38.832 1084.65 32.472 Q1089.76 26.1121 1098.1 26.1121 Q1103.12 26.1121 1106.73 28.0971 Q1110.33 30.082 1112.64 34.0924 L1112.64 27.2059 L1120.1 27.2059 L1120.1 66.9452 Z" fill="#000000" fill-rule="nonzero" fill-opacity="1" /><path clip-path="url(#clip390)" d="M1207.43 16.7545 L1207.43 25.383 Q1203.3 21.5346 1198.6 19.6307 Q1193.94 17.7268 1188.68 17.7268 Q1178.31 17.7268 1172.8 24.0867 Q1167.29 30.4061 1167.29 42.3968 Q1167.29 54.3469 1172.8 60.7069 Q1178.31 67.0263 1188.68 67.0263 Q1193.94 67.0263 1198.6 65.1223 Q1203.3 63.2184 1207.43 59.3701 L1207.43 67.9175 Q1203.14 70.8341 1198.32 72.2924 Q1193.54 73.7508 1188.19 73.7508 Q1174.46 73.7508 1166.56 65.3654 Q1158.66 56.9395 1158.66 42.3968 Q1158.66 27.8135 1166.56 19.4281 Q1174.46 11.0023 1188.19 11.0023 Q1193.62 11.0023 1198.4 12.4606 Q1203.22 13.8784 1207.43 16.7545 Z" fill="#000000" fill-rule="nonzero" fill-opacity="1" /><path clip-path="url(#clip390)" d="M1237.33 32.4315 Q1231.33 32.4315 1227.85 37.1306 Q1224.37 41.7891 1224.37 49.9314 Q1224.37 58.0738 1227.81 62.7728 Q1231.29 67.4314 1237.33 67.4314 Q1243.28 67.4314 1246.77 62.7323 Q1250.25 58.0333 1250.25 49.9314 Q1250.25 41.8701 1246.77 37.1711 Q1243.28 32.4315 1237.33 32.4315 M1237.33 26.1121 Q1247.05 26.1121 1252.6 32.4315 Q1258.15 38.7509 1258.15 49.9314 Q1258.15 61.0714 1252.6 67.4314 Q1247.05 73.7508 1237.33 73.7508 Q1227.57 73.7508 1222.02 67.4314 Q1216.51 61.0714 1216.51 49.9314 Q1216.51 38.7509 1222.02 32.4315 Q1227.57 26.1121 1237.33 26.1121 Z" fill="#000000" fill-rule="nonzero" fill-opacity="1" /><path clip-path="url(#clip390)" d="M1309.31 48.0275 L1309.31 51.6733 L1275.04 51.6733 Q1275.53 59.3701 1279.66 63.421 Q1283.83 67.4314 1291.25 67.4314 Q1295.54 67.4314 1299.55 66.3781 Q1303.6 65.3249 1307.57 63.2184 L1307.57 70.267 Q1303.56 71.9684 1299.35 72.8596 Q1295.14 73.7508 1290.8 73.7508 Q1279.95 73.7508 1273.59 67.4314 Q1267.27 61.1119 1267.27 50.3365 Q1267.27 39.1965 1273.26 32.6746 Q1279.3 26.1121 1289.51 26.1121 Q1298.66 26.1121 1303.97 32.0264 Q1309.31 37.9003 1309.31 48.0275 M1301.86 45.84 Q1301.78 39.7232 1298.42 36.0774 Q1295.1 32.4315 1289.59 32.4315 Q1283.35 32.4315 1279.58 35.9558 Q1275.85 39.4801 1275.29 45.8805 L1301.86 45.84 Z" fill="#000000" fill-rule="nonzero" fill-opacity="1" /><path clip-path="url(#clip390)" d="M1344.52 9.54393 L1344.52 15.7418 L1337.39 15.7418 Q1333.38 15.7418 1331.8 17.3622 Q1330.26 18.9825 1330.26 23.1955 L1330.26 27.2059 L1342.53 27.2059 L1342.53 32.9987 L1330.26 32.9987 L1330.26 72.576 L1322.76 72.576 L1322.76 32.9987 L1315.63 32.9987 L1315.63 27.2059 L1322.76 27.2059 L1322.76 24.0462 Q1322.76 16.471 1326.29 13.0277 Q1329.81 9.54393 1337.47 9.54393 L1344.52 9.54393 Z" fill="#000000" fill-rule="nonzero" fill-opacity="1" /><path clip-path="url(#clip390)" d="M1373.72 9.54393 L1373.72 15.7418 L1366.59 15.7418 Q1362.58 15.7418 1361 17.3622 Q1359.46 18.9825 1359.46 23.1955 L1359.46 27.2059 L1371.74 27.2059 L1371.74 32.9987 L1359.46 32.9987 L1359.46 72.576 L1351.97 72.576 L1351.97 32.9987 L1344.84 32.9987 L1344.84 27.2059 L1351.97 27.2059 L1351.97 24.0462 Q1351.97 16.471 1355.49 13.0277 Q1359.02 9.54393 1366.68 9.54393 L1373.72 9.54393 Z" fill="#000000" fill-rule="nonzero" fill-opacity="1" /><path clip-path="url(#clip390)" d="M1379.96 27.2059 L1387.42 27.2059 L1387.42 72.576 L1379.96 72.576 L1379.96 27.2059 M1379.96 9.54393 L1387.42 9.54393 L1387.42 18.9825 L1379.96 18.9825 L1379.96 9.54393 Z" fill="#000000" fill-rule="nonzero" fill-opacity="1" /><path clip-path="url(#clip390)" d="M1435.66 28.9478 L1435.66 35.9153 Q1432.5 34.1734 1429.3 33.3227 Q1426.14 32.4315 1422.9 32.4315 Q1415.65 32.4315 1411.64 37.0496 Q1407.63 41.6271 1407.63 49.9314 Q1407.63 58.2358 1411.64 62.8538 Q1415.65 67.4314 1422.9 67.4314 Q1426.14 67.4314 1429.3 66.5807 Q1432.5 65.6895 1435.66 63.9476 L1435.66 70.8341 Q1432.54 72.2924 1429.18 73.0216 Q1425.86 73.7508 1422.09 73.7508 Q1411.84 73.7508 1405.81 67.3098 Q1399.77 60.8689 1399.77 49.9314 Q1399.77 38.832 1405.85 32.472 Q1411.96 26.1121 1422.58 26.1121 Q1426.02 26.1121 1429.3 26.8413 Q1432.58 27.5299 1435.66 28.9478 Z" fill="#000000" fill-rule="nonzero" fill-opacity="1" /><path clip-path="url(#clip390)" d="M1448.63 27.2059 L1456.08 27.2059 L1456.08 72.576 L1448.63 72.576 L1448.63 27.2059 M1448.63 9.54393 L1456.08 9.54393 L1456.08 18.9825 L1448.63 18.9825 L1448.63 9.54393 Z" fill="#000000" fill-rule="nonzero" fill-opacity="1" /><path clip-path="url(#clip390)" d="M1510.48 48.0275 L1510.48 51.6733 L1476.21 51.6733 Q1476.7 59.3701 1480.83 63.421 Q1485 67.4314 1492.42 67.4314 Q1496.71 67.4314 1500.72 66.3781 Q1504.77 65.3249 1508.74 63.2184 L1508.74 70.267 Q1504.73 71.9684 1500.52 72.8596 Q1496.3 73.7508 1491.97 73.7508 Q1481.11 73.7508 1474.75 67.4314 Q1468.43 61.1119 1468.43 50.3365 Q1468.43 39.1965 1474.43 32.6746 Q1480.47 26.1121 1490.67 26.1121 Q1499.83 26.1121 1505.14 32.0264 Q1510.48 37.9003 1510.48 48.0275 M1503.03 45.84 Q1502.95 39.7232 1499.59 36.0774 Q1496.26 32.4315 1490.75 32.4315 Q1484.52 32.4315 1480.75 35.9558 Q1477.02 39.4801 1476.45 45.8805 L1503.03 45.84 Z" fill="#000000" fill-rule="nonzero" fill-opacity="1" /><path clip-path="url(#clip390)" d="M1560.43 45.1919 L1560.43 72.576 L1552.98 72.576 L1552.98 45.4349 Q1552.98 38.994 1550.46 35.7938 Q1547.95 32.5936 1542.93 32.5936 Q1536.89 32.5936 1533.41 36.4419 Q1529.93 40.2903 1529.93 46.9338 L1529.93 72.576 L1522.43 72.576 L1522.43 27.2059 L1529.93 27.2059 L1529.93 34.2544 Q1532.6 30.163 1536.21 28.1376 Q1539.85 26.1121 1544.59 26.1121 Q1552.41 26.1121 1556.42 30.9732 Q1560.43 35.7938 1560.43 45.1919 Z" fill="#000000" fill-rule="nonzero" fill-opacity="1" /><path clip-path="url(#clip390)" d="M1582.67 14.324 L1582.67 27.2059 L1598.02 27.2059 L1598.02 32.9987 L1582.67 32.9987 L1582.67 57.6282 Q1582.67 63.1779 1584.17 64.7578 Q1585.71 66.3376 1590.37 66.3376 L1598.02 66.3376 L1598.02 72.576 L1590.37 72.576 Q1581.74 72.576 1578.46 69.3758 Q1575.18 66.1351 1575.18 57.6282 L1575.18 32.9987 L1569.71 32.9987 L1569.71 27.2059 L1575.18 27.2059 L1575.18 14.324 L1582.67 14.324 Z" fill="#000000" fill-rule="nonzero" fill-opacity="1" /><path clip-path="url(#clip390)" d="M1652.1 9.62495 Q1646.67 18.942 1644.04 28.0566 Q1641.41 37.1711 1641.41 46.5287 Q1641.41 55.8863 1644.04 65.0818 Q1646.71 74.2369 1652.1 83.5134 L1645.62 83.5134 Q1639.54 73.9938 1636.51 64.7983 Q1633.51 55.6027 1633.51 46.5287 Q1633.51 37.4952 1636.51 28.3401 Q1639.5 19.1851 1645.62 9.62495 L1652.1 9.62495 Z" fill="#000000" fill-rule="nonzero" fill-opacity="1" /><path clip-path="url(#clip390)" d="M1658.5 12.096 L1709.67 12.096 L1709.67 18.9825 L1688.2 18.9825 L1688.2 72.576 L1679.97 72.576 L1679.97 18.9825 L1658.5 18.9825 L1658.5 12.096 Z" fill="#000000" fill-rule="nonzero" fill-opacity="1" /><path clip-path="url(#clip390)" d="M1724.13 49.7694 Q1715.09 49.7694 1711.61 51.8354 Q1708.13 53.9013 1708.13 58.8839 Q1708.13 62.8538 1710.72 65.2034 Q1713.35 67.5124 1717.85 67.5124 Q1724.05 67.5124 1727.77 63.1374 Q1731.54 58.7219 1731.54 51.4303 L1731.54 49.7694 L1724.13 49.7694 M1738.99 46.6907 L1738.99 72.576 L1731.54 72.576 L1731.54 65.6895 Q1728.99 69.8214 1725.18 71.8063 Q1721.37 73.7508 1715.86 73.7508 Q1708.9 73.7508 1704.76 69.8619 Q1700.67 65.9325 1700.67 59.3701 Q1700.67 51.7138 1705.78 47.825 Q1710.92 43.9361 1721.09 43.9361 L1731.54 43.9361 L1731.54 43.2069 Q1731.54 38.0623 1728.14 35.2672 Q1724.78 32.4315 1718.66 32.4315 Q1714.77 32.4315 1711.08 33.3632 Q1707.4 34.295 1703.99 36.1584 L1703.99 29.2718 Q1708.09 27.692 1711.93 26.9223 Q1715.78 26.1121 1719.43 26.1121 Q1729.27 26.1121 1734.13 31.2163 Q1738.99 36.3204 1738.99 46.6907 Z" fill="#000000" fill-rule="nonzero" fill-opacity="1" /><path clip-path="url(#clip390)" d="M1786.92 49.9314 Q1786.92 41.7081 1783.51 37.0496 Q1780.15 32.3505 1774.24 32.3505 Q1768.32 32.3505 1764.92 37.0496 Q1761.56 41.7081 1761.56 49.9314 Q1761.56 58.1548 1764.92 62.8538 Q1768.32 67.5124 1774.24 67.5124 Q1780.15 67.5124 1783.51 62.8538 Q1786.92 58.1548 1786.92 49.9314 M1761.56 34.0924 Q1763.91 30.0415 1767.47 28.0971 Q1771.08 26.1121 1776.06 26.1121 Q1784.32 26.1121 1789.47 32.6746 Q1794.65 39.2371 1794.65 49.9314 Q1794.65 60.6258 1789.47 67.1883 Q1784.32 73.7508 1776.06 73.7508 Q1771.08 73.7508 1767.47 71.8063 Q1763.91 69.8214 1761.56 65.7705 L1761.56 72.576 L1754.06 72.576 L1754.06 9.54393 L1761.56 9.54393 L1761.56 34.0924 Z" fill="#000000" fill-rule="nonzero" fill-opacity="1" /><path clip-path="url(#clip390)" d="M1807.01 9.54393 L1814.46 9.54393 L1814.46 72.576 L1807.01 72.576 L1807.01 9.54393 Z" fill="#000000" fill-rule="nonzero" fill-opacity="1" /><path clip-path="url(#clip390)" d="M1868.87 48.0275 L1868.87 51.6733 L1834.6 51.6733 Q1835.08 59.3701 1839.21 63.421 Q1843.39 67.4314 1850.8 67.4314 Q1855.09 67.4314 1859.1 66.3781 Q1863.15 65.3249 1867.12 63.2184 L1867.12 70.267 Q1863.11 71.9684 1858.9 72.8596 Q1854.69 73.7508 1850.35 73.7508 Q1839.5 73.7508 1833.14 67.4314 Q1826.82 61.1119 1826.82 50.3365 Q1826.82 39.1965 1832.81 32.6746 Q1838.85 26.1121 1849.06 26.1121 Q1858.21 26.1121 1863.52 32.0264 Q1868.87 37.9003 1868.87 48.0275 M1861.41 45.84 Q1861.33 39.7232 1857.97 36.0774 Q1854.65 32.4315 1849.14 32.4315 Q1842.9 32.4315 1839.13 35.9558 Q1835.41 39.4801 1834.84 45.8805 L1861.41 45.84 Z" fill="#000000" fill-rule="nonzero" fill-opacity="1" /><path clip-path="url(#clip390)" d="M1915.57 65.6895 L1944.13 65.6895 L1944.13 72.576 L1905.73 72.576 L1905.73 65.6895 Q1910.39 60.8689 1918.41 52.7671 Q1926.47 44.6248 1928.54 42.2752 Q1932.47 37.8598 1934 34.8216 Q1935.58 31.7429 1935.58 28.7857 Q1935.58 23.9651 1932.18 20.927 Q1928.82 17.8888 1923.39 17.8888 Q1919.54 17.8888 1915.25 19.2256 Q1911 20.5624 1906.13 23.2765 L1906.13 15.0127 Q1911.08 13.0277 1915.37 12.015 Q1919.66 11.0023 1923.23 11.0023 Q1932.63 11.0023 1938.22 15.7013 Q1943.81 20.4004 1943.81 28.2591 Q1943.81 31.9859 1942.39 35.3482 Q1941.01 38.6699 1937.33 43.2069 Q1936.31 44.3817 1930.89 50.0125 Q1925.46 55.6027 1915.57 65.6895 Z" fill="#000000" fill-rule="nonzero" fill-opacity="1" /><path clip-path="url(#clip390)" d="M1978.81 17.4837 Q1972.49 17.4837 1969.29 23.7221 Q1966.13 29.92 1966.13 42.3968 Q1966.13 54.833 1969.29 61.0714 Q1972.49 67.2693 1978.81 67.2693 Q1985.17 67.2693 1988.33 61.0714 Q1991.53 54.833 1991.53 42.3968 Q1991.53 29.92 1988.33 23.7221 Q1985.17 17.4837 1978.81 17.4837 M1978.81 11.0023 Q1988.98 11.0023 1994.32 19.0636 Q1999.71 27.0843 1999.71 42.3968 Q1999.71 57.6687 1994.32 65.73 Q1988.98 73.7508 1978.81 73.7508 Q1968.64 73.7508 1963.25 65.73 Q1957.9 57.6687 1957.9 42.3968 Q1957.9 27.0843 1963.25 19.0636 Q1968.64 11.0023 1978.81 11.0023 Z" fill="#000000" fill-rule="nonzero" fill-opacity="1" /><path clip-path="url(#clip390)" d="M2014.09 62.2867 L2022.64 62.2867 L2022.64 72.576 L2014.09 72.576 L2014.09 62.2867 Z" fill="#000000" fill-rule="nonzero" fill-opacity="1" /><path clip-path="url(#clip390)" d="M2041.88 65.6895 L2055.25 65.6895 L2055.25 19.5497 L2040.71 22.4663 L2040.71 15.0127 L2055.17 12.096 L2063.35 12.096 L2063.35 65.6895 L2076.72 65.6895 L2076.72 72.576 L2041.88 72.576 L2041.88 65.6895 Z" fill="#000000" fill-rule="nonzero" fill-opacity="1" /><path clip-path="url(#clip390)" d="M2091.02 9.62495 L2097.5 9.62495 Q2103.58 19.1851 2106.57 28.3401 Q2109.61 37.4952 2109.61 46.5287 Q2109.61 55.6027 2106.57 64.7983 Q2103.58 73.9938 2097.5 83.5134 L2091.02 83.5134 Q2096.41 74.2369 2099.04 65.0818 Q2101.71 55.8863 2101.71 46.5287 Q2101.71 37.1711 2099.04 28.0566 Q2096.41 18.942 2091.02 9.62495 Z" fill="#000000" fill-rule="nonzero" fill-opacity="1" /><polyline clip-path="url(#clip391)" style="stroke:#009af9; stroke-linecap:round; stroke-linejoin:round; stroke-width:4; stroke-opacity:1; fill:none" points="281.952,159.909 952.115,724.664 1622.28,1092.86 2292.44,1365.73 "/>
<circle clip-path="url(#clip391)" cx="281.952" cy="159.909" r="14.4" fill="#009af9" fill-rule="evenodd" fill-opacity="1" stroke="#000000" stroke-opacity="1" stroke-width="3.2"/>
<circle clip-path="url(#clip391)" cx="952.115" cy="724.664" r="14.4" fill="#009af9" fill-rule="evenodd" fill-opacity="1" stroke="#000000" stroke-opacity="1" stroke-width="3.2"/>
<circle clip-path="url(#clip391)" cx="1622.28" cy="1092.86" r="14.4" fill="#009af9" fill-rule="evenodd" fill-opacity="1" stroke="#000000" stroke-opacity="1" stroke-width="3.2"/>
<circle clip-path="url(#clip391)" cx="2292.44" cy="1365.73" r="14.4" fill="#009af9" fill-rule="evenodd" fill-opacity="1" stroke="#000000" stroke-opacity="1" stroke-width="3.2"/>
<path clip-path="url(#clip391)" d="M265.952 153.624 L265.952 185.624 L297.952 185.624 L297.952 153.624 L265.952 153.624 Z" fill="#e26f46" fill-rule="evenodd" fill-opacity="1" stroke="#000000" stroke-opacity="1" stroke-width="3.2"/>
<path clip-path="url(#clip391)" d="M936.115 716.088 L936.115 748.088 L968.115 748.088 L968.115 716.088 L936.115 716.088 Z" fill="#e26f46" fill-rule="evenodd" fill-opacity="1" stroke="#000000" stroke-opacity="1" stroke-width="3.2"/>
<path clip-path="url(#clip391)" d="M1606.28 1081.55 L1606.28 1113.55 L1638.28 1113.55 L1638.28 1081.55 L1606.28 1081.55 Z" fill="#e26f46" fill-rule="evenodd" fill-opacity="1" stroke="#000000" stroke-opacity="1" stroke-width="3.2"/>
<path clip-path="url(#clip391)" d="M2276.44 1358.46 L2276.44 1390.46 L2308.44 1390.46 L2308.44 1358.46 L2276.44 1358.46 Z" fill="#e26f46" fill-rule="evenodd" fill-opacity="1" stroke="#000000" stroke-opacity="1" stroke-width="3.2"/>
<path clip-path="url(#clip390)" d="M1829.3 321.906 L2281.72 321.906 L2281.72 166.386 L1829.3 166.386  Z" fill="#ffffff" fill-rule="evenodd" fill-opacity="1"/>
<polyline clip-path="url(#clip390)" style="stroke:#000000; stroke-linecap:round; stroke-linejoin:round; stroke-width:4; stroke-opacity:1; fill:none" points="1829.3,321.906 2281.72,321.906 2281.72,166.386 1829.3,166.386 1829.3,321.906 "/>
<polyline clip-path="url(#clip390)" style="stroke:#009af9; stroke-linecap:round; stroke-linejoin:round; stroke-width:4; stroke-opacity:1; fill:none" points="1852.98,218.226 1995.06,218.226 "/>
<circle clip-path="url(#clip390)" cx="1924.02" cy="218.226" r="19.7326" fill="#009af9" fill-rule="evenodd" fill-opacity="1" stroke="#000000" stroke-opacity="1" stroke-width="4.55111"/>
<path clip-path="url(#clip390)" d="M2046.61 203.608 L2046.61 208.539 Q2044.24 206.34 2041.56 205.252 Q2038.9 204.164 2035.89 204.164 Q2029.96 204.164 2026.81 207.798 Q2023.67 211.409 2023.67 218.261 Q2023.67 225.09 2026.81 228.724 Q2029.96 232.335 2035.89 232.335 Q2038.9 232.335 2041.56 231.247 Q2044.24 230.159 2046.61 227.96 L2046.61 232.844 Q2044.15 234.511 2041.4 235.344 Q2038.67 236.178 2035.61 236.178 Q2027.76 236.178 2023.25 231.386 Q2018.74 226.571 2018.74 218.261 Q2018.74 209.928 2023.25 205.136 Q2027.76 200.321 2035.61 200.321 Q2038.71 200.321 2041.44 201.155 Q2044.2 201.965 2046.61 203.608 Z" fill="#000000" fill-rule="nonzero" fill-opacity="1" /><path clip-path="url(#clip390)" d="M2063.69 212.567 Q2060.26 212.567 2058.27 215.252 Q2056.28 217.914 2056.28 222.567 Q2056.28 227.219 2058.25 229.904 Q2060.24 232.566 2063.69 232.566 Q2067.09 232.566 2069.08 229.881 Q2071.07 227.196 2071.07 222.567 Q2071.07 217.96 2069.08 215.275 Q2067.09 212.567 2063.69 212.567 M2063.69 208.955 Q2069.24 208.955 2072.42 212.567 Q2075.59 216.178 2075.59 222.567 Q2075.59 228.932 2072.42 232.566 Q2069.24 236.178 2063.69 236.178 Q2058.11 236.178 2054.94 232.566 Q2051.79 228.932 2051.79 222.567 Q2051.79 216.178 2054.94 212.567 Q2058.11 208.955 2063.69 208.955 Z" fill="#000000" fill-rule="nonzero" fill-opacity="1" /><path clip-path="url(#clip390)" d="M2102.83 214.557 Q2104.43 211.687 2106.65 210.321 Q2108.87 208.955 2111.88 208.955 Q2115.93 208.955 2118.13 211.803 Q2120.33 214.627 2120.33 219.858 L2120.33 235.506 L2116.05 235.506 L2116.05 219.997 Q2116.05 216.27 2114.73 214.465 Q2113.41 212.659 2110.7 212.659 Q2107.39 212.659 2105.47 214.858 Q2103.55 217.057 2103.55 220.854 L2103.55 235.506 L2099.27 235.506 L2099.27 219.997 Q2099.27 216.247 2097.95 214.465 Q2096.63 212.659 2093.87 212.659 Q2090.61 212.659 2088.69 214.881 Q2086.77 217.08 2086.77 220.854 L2086.77 235.506 L2082.48 235.506 L2082.48 209.58 L2086.77 209.58 L2086.77 213.608 Q2088.23 211.224 2090.26 210.09 Q2092.3 208.955 2095.1 208.955 Q2097.92 208.955 2099.89 210.391 Q2101.88 211.826 2102.83 214.557 Z" fill="#000000" fill-rule="nonzero" fill-opacity="1" /><path clip-path="url(#clip390)" d="M2132.95 231.617 L2132.95 245.367 L2128.67 245.367 L2128.67 209.58 L2132.95 209.58 L2132.95 213.516 Q2134.29 211.201 2136.33 210.09 Q2138.39 208.955 2141.23 208.955 Q2145.96 208.955 2148.9 212.705 Q2151.86 216.455 2151.86 222.567 Q2151.86 228.678 2148.9 232.428 Q2145.96 236.178 2141.23 236.178 Q2138.39 236.178 2136.33 235.066 Q2134.29 233.932 2132.95 231.617 M2147.44 222.567 Q2147.44 217.867 2145.49 215.205 Q2143.57 212.52 2140.19 212.52 Q2136.81 212.52 2134.87 215.205 Q2132.95 217.867 2132.95 222.567 Q2132.95 227.266 2134.87 229.951 Q2136.81 232.613 2140.19 232.613 Q2143.57 232.613 2145.49 229.951 Q2147.44 227.266 2147.44 222.567 Z" fill="#000000" fill-rule="nonzero" fill-opacity="1" /><path clip-path="url(#clip390)" d="M2158.48 225.275 L2158.48 209.58 L2162.74 209.58 L2162.74 225.113 Q2162.74 228.793 2164.17 230.645 Q2165.61 232.474 2168.48 232.474 Q2171.93 232.474 2173.92 230.275 Q2175.93 228.076 2175.93 224.279 L2175.93 209.58 L2180.19 209.58 L2180.19 235.506 L2175.93 235.506 L2175.93 231.525 Q2174.38 233.886 2172.32 235.043 Q2170.29 236.178 2167.58 236.178 Q2163.11 236.178 2160.79 233.4 Q2158.48 230.622 2158.48 225.275 M2169.2 208.955 L2169.2 208.955 Z" fill="#000000" fill-rule="nonzero" fill-opacity="1" /><path clip-path="url(#clip390)" d="M2193.18 202.219 L2193.18 209.58 L2201.95 209.58 L2201.95 212.891 L2193.18 212.891 L2193.18 226.965 Q2193.18 230.136 2194.04 231.039 Q2194.91 231.941 2197.58 231.941 L2201.95 231.941 L2201.95 235.506 L2197.58 235.506 Q2192.65 235.506 2190.77 233.678 Q2188.9 231.826 2188.9 226.965 L2188.9 212.891 L2185.77 212.891 L2185.77 209.58 L2188.9 209.58 L2188.9 202.219 L2193.18 202.219 Z" fill="#000000" fill-rule="nonzero" fill-opacity="1" /><path clip-path="url(#clip390)" d="M2229.73 221.479 L2229.73 223.562 L2210.15 223.562 Q2210.42 227.96 2212.79 230.275 Q2215.17 232.566 2219.41 232.566 Q2221.86 232.566 2224.15 231.965 Q2226.47 231.363 2228.73 230.159 L2228.73 234.187 Q2226.44 235.159 2224.04 235.668 Q2221.63 236.178 2219.15 236.178 Q2212.95 236.178 2209.31 232.566 Q2205.7 228.955 2205.7 222.798 Q2205.7 216.432 2209.13 212.705 Q2212.58 208.955 2218.41 208.955 Q2223.64 208.955 2226.67 212.335 Q2229.73 215.692 2229.73 221.479 M2225.47 220.229 Q2225.42 216.733 2223.5 214.65 Q2221.6 212.567 2218.46 212.567 Q2214.89 212.567 2212.74 214.58 Q2210.61 216.594 2210.29 220.252 L2225.47 220.229 Z" fill="#000000" fill-rule="nonzero" fill-opacity="1" /><path clip-path="url(#clip390)" d="M2253.78 213.516 L2253.78 199.488 L2258.04 199.488 L2258.04 235.506 L2253.78 235.506 L2253.78 231.617 Q2252.44 233.932 2250.38 235.066 Q2248.34 236.178 2245.47 236.178 Q2240.77 236.178 2237.81 232.428 Q2234.87 228.678 2234.87 222.567 Q2234.87 216.455 2237.81 212.705 Q2240.77 208.955 2245.47 208.955 Q2248.34 208.955 2250.38 210.09 Q2252.44 211.201 2253.78 213.516 M2239.27 222.567 Q2239.27 227.266 2241.19 229.951 Q2243.13 232.613 2246.51 232.613 Q2249.89 232.613 2251.84 229.951 Q2253.78 227.266 2253.78 222.567 Q2253.78 217.867 2251.84 215.205 Q2249.89 212.52 2246.51 212.52 Q2243.13 212.52 2241.19 215.205 Q2239.27 217.867 2239.27 222.567 Z" fill="#000000" fill-rule="nonzero" fill-opacity="1" /><path clip-path="url(#clip390)" d="M1901.26 247.311 L1901.26 292.822 L1946.77 292.822 L1946.77 247.311 L1901.26 247.311 Z" fill="#e26f46" fill-rule="evenodd" fill-opacity="1" stroke="#000000" stroke-opacity="1" stroke-width="4.55111"/>
<path clip-path="url(#clip390)" d="M2018.74 252.786 L2047.97 252.786 L2047.97 256.721 L2035.7 256.721 L2035.7 287.346 L2031 287.346 L2031 256.721 L2018.74 256.721 L2018.74 252.786 Z" fill="#000000" fill-rule="nonzero" fill-opacity="1" /><path clip-path="url(#clip390)" d="M2056.24 274.314 Q2051.07 274.314 2049.08 275.494 Q2047.09 276.675 2047.09 279.522 Q2047.09 281.791 2048.57 283.133 Q2050.08 284.453 2052.65 284.453 Q2056.19 284.453 2058.32 281.953 Q2060.47 279.43 2060.47 275.263 L2060.47 274.314 L2056.24 274.314 M2064.73 272.555 L2064.73 287.346 L2060.47 287.346 L2060.47 283.411 Q2059.01 285.772 2056.84 286.906 Q2054.66 288.018 2051.51 288.018 Q2047.53 288.018 2045.17 285.795 Q2042.83 283.55 2042.83 279.8 Q2042.83 275.425 2045.75 273.203 Q2048.69 270.981 2054.5 270.981 L2060.47 270.981 L2060.47 270.564 Q2060.47 267.624 2058.53 266.027 Q2056.61 264.407 2053.11 264.407 Q2050.89 264.407 2048.78 264.939 Q2046.67 265.471 2044.73 266.536 L2044.73 262.601 Q2047.07 261.698 2049.27 261.258 Q2051.47 260.795 2053.55 260.795 Q2059.17 260.795 2061.95 263.712 Q2064.73 266.629 2064.73 272.555 Z" fill="#000000" fill-rule="nonzero" fill-opacity="1" /><path clip-path="url(#clip390)" d="M2092.11 274.407 Q2092.11 269.707 2090.17 267.045 Q2088.25 264.36 2084.87 264.36 Q2081.49 264.36 2079.55 267.045 Q2077.62 269.707 2077.62 274.407 Q2077.62 279.106 2079.55 281.791 Q2081.49 284.453 2084.87 284.453 Q2088.25 284.453 2090.17 281.791 Q2092.11 279.106 2092.11 274.407 M2077.62 265.356 Q2078.97 263.041 2081 261.93 Q2083.06 260.795 2085.91 260.795 Q2090.63 260.795 2093.57 264.545 Q2096.54 268.295 2096.54 274.407 Q2096.54 280.518 2093.57 284.268 Q2090.63 288.018 2085.91 288.018 Q2083.06 288.018 2081 286.906 Q2078.97 285.772 2077.62 283.457 L2077.62 287.346 L2073.34 287.346 L2073.34 251.328 L2077.62 251.328 L2077.62 265.356 Z" fill="#000000" fill-rule="nonzero" fill-opacity="1" /><path clip-path="url(#clip390)" d="M2103.6 251.328 L2107.86 251.328 L2107.86 287.346 L2103.6 287.346 L2103.6 251.328 Z" fill="#000000" fill-rule="nonzero" fill-opacity="1" /><path clip-path="url(#clip390)" d="M2138.94 273.319 L2138.94 275.402 L2119.36 275.402 Q2119.64 279.8 2122 282.115 Q2124.38 284.406 2128.62 284.406 Q2131.07 284.406 2133.36 283.805 Q2135.68 283.203 2137.95 281.999 L2137.95 286.027 Q2135.66 286.999 2133.25 287.508 Q2130.84 288.018 2128.36 288.018 Q2122.16 288.018 2118.53 284.406 Q2114.92 280.795 2114.92 274.638 Q2114.92 268.272 2118.34 264.545 Q2121.79 260.795 2127.62 260.795 Q2132.85 260.795 2135.89 264.175 Q2138.94 267.532 2138.94 273.319 M2134.68 272.069 Q2134.64 268.573 2132.72 266.49 Q2130.82 264.407 2127.67 264.407 Q2124.11 264.407 2121.95 266.42 Q2119.82 268.434 2119.5 272.092 L2134.68 272.069 Z" fill="#000000" fill-rule="nonzero" fill-opacity="1" /><path clip-path="url(#clip390)" d="M2165.63 283.411 L2181.95 283.411 L2181.95 287.346 L2160.01 287.346 L2160.01 283.411 Q2162.67 280.656 2167.25 276.027 Q2171.86 271.374 2173.04 270.032 Q2175.29 267.508 2176.16 265.772 Q2177.07 264.013 2177.07 262.323 Q2177.07 259.569 2175.12 257.833 Q2173.2 256.096 2170.1 256.096 Q2167.9 256.096 2165.45 256.86 Q2163.02 257.624 2160.24 259.175 L2160.24 254.453 Q2163.06 253.319 2165.52 252.74 Q2167.97 252.161 2170.01 252.161 Q2175.38 252.161 2178.57 254.846 Q2181.77 257.532 2181.77 262.022 Q2181.77 264.152 2180.96 266.073 Q2180.17 267.971 2178.06 270.564 Q2177.48 271.235 2174.38 274.453 Q2171.28 277.647 2165.63 283.411 Z" fill="#000000" fill-rule="nonzero" fill-opacity="1" /><path clip-path="url(#clip390)" d="M2201.77 255.865 Q2198.16 255.865 2196.33 259.43 Q2194.52 262.971 2194.52 270.101 Q2194.52 277.207 2196.33 280.772 Q2198.16 284.314 2201.77 284.314 Q2205.4 284.314 2207.21 280.772 Q2209.04 277.207 2209.04 270.101 Q2209.04 262.971 2207.21 259.43 Q2205.4 255.865 2201.77 255.865 M2201.77 252.161 Q2207.58 252.161 2210.63 256.768 Q2213.71 261.351 2213.71 270.101 Q2213.71 278.828 2210.63 283.434 Q2207.58 288.018 2201.77 288.018 Q2195.96 288.018 2192.88 283.434 Q2189.82 278.828 2189.82 270.101 Q2189.82 261.351 2192.88 256.768 Q2195.96 252.161 2201.77 252.161 Z" fill="#000000" fill-rule="nonzero" fill-opacity="1" /><path clip-path="url(#clip390)" d="M2221.93 281.467 L2226.81 281.467 L2226.81 287.346 L2221.93 287.346 L2221.93 281.467 Z" fill="#000000" fill-rule="nonzero" fill-opacity="1" /><path clip-path="url(#clip390)" d="M2237.81 283.411 L2245.45 283.411 L2245.45 257.046 L2237.14 258.712 L2237.14 254.453 L2245.4 252.786 L2250.08 252.786 L2250.08 283.411 L2257.72 283.411 L2257.72 287.346 L2237.81 287.346 L2237.81 283.411 Z" fill="#000000" fill-rule="nonzero" fill-opacity="1" /></svg>
